<svg width="16" height="16" viewBox="0 0 16 16" fill="none" xmlns="http://www.w3.org/2000/svg">
<rect width="16" height="16" fill="white" fill-opacity="0.01"/>
<path d="M7.5 12V11H5.7L11 5.7V7.5H12V4H8.5V5H10.3L5 10.3V8.5H4V12H7.5Z" fill="#161616"/>
<path d="M12.5 10V11H14C14.55 11 15 10.55 15 10V8.5H14V10H12.5Z" fill="#161616"/>
<path d="M15 5H14V7H15V5Z" fill="#161616"/>
<path d="M12.5 1V2H14V3.5H15V2C15 1.45 14.55 1 14 1H12.5Z" fill="#161616"/>
<path d="M11 1H9V2H11V1Z" fill="#161616"/>
<path d="M5 2V3.5H6V2H7.5V1H6C5.45 1 5 1.45 5 2Z" fill="#161616"/>
<path d="M6 5H2C1.45 5 1 5.45 1 6V14C1 14.55 1.45 15 2 15H10C10.55 15 11 14.55 11 14V10H10V14H2V6H6V5Z" fill="#161616"/>
</svg>
