<svg width="16" height="16" viewBox="0 0 16 16" fill="none" xmlns="http://www.w3.org/2000/svg">
<g clip-path="url(#clip0_28_1006)">
<path d="M13.5 7H11C10.7349 6.99964 10.4807 6.89417 10.2933 6.70671C10.1058 6.51925 10.0004 6.26511 10 6V3C10.0003 2.73488 10.1058 2.4807 10.2932 2.29323C10.4807 2.10576 10.7349 2.0003 11 2H13.5V3H11V6H13.5V7Z" fill="#161616"/>
<path d="M8 2H6V0H5V7H8C8.26511 6.99964 8.51925 6.89417 8.70671 6.70671C8.89417 6.51925 8.99964 6.26511 9 6V3C8.9997 2.73488 8.89424 2.4807 8.70677 2.29323C8.5193 2.10576 8.26512 2.0003 8 2ZM6 6V3H8V6H6Z" fill="#161616"/>
<path d="M3 0H1C0.734865 0.000264738 0.480665 0.105707 0.293186 0.293186C0.105707 0.480665 0.000264738 0.734865 0 1V7H1V4.5H3V7H4V1C3.99974 0.734865 3.89429 0.480665 3.70681 0.293186C3.51934 0.105707 3.26514 0.000264738 3 0ZM1 3.5V1H3V3.5H1Z" fill="#161616"/>
<rect width="5" height="5" transform="translate(10.5 6)" fill="white" fill-opacity="0.01"/>
<path d="M11.9624 10.7422V8.99687L12.3202 9.35469L12.5421 9.13437L11.8062 8.39844L11.0702 9.13437L11.2921 9.35469L11.6499 8.99687V10.7422H11.9624Z" fill="#161616"/>
<path d="M15.4286 12H13.7143V12.5714H15.4286V13.7143H14.2857V14.2857H15.4286V15.4286H13.7143V16H15.4286C15.5801 15.9998 15.7253 15.9395 15.8324 15.8324C15.9395 15.7253 15.9998 15.5801 16 15.4286V12.5714C15.9998 12.4199 15.9396 12.2747 15.8324 12.1676C15.7253 12.0604 15.5801 12.0002 15.4286 12Z" fill="#161616"/>
<path d="M13.1429 16H10.8571V14.2857C10.8573 14.1342 10.9175 13.989 11.0247 13.8818C11.1318 13.7747 11.2771 13.7144 11.4286 13.7143H12.5714V12.5714H10.8571V12H12.5714C12.7229 12.0002 12.8682 12.0604 12.9753 12.1676C13.0824 12.2747 13.1427 12.4199 13.1429 12.5714V13.7143C13.1427 13.8658 13.0824 14.011 12.9753 14.1182C12.8682 14.2253 12.7229 14.2855 12.5714 14.2857H11.4286V15.4286H13.1429V16Z" fill="#161616"/>
<path d="M8.14286 15.8571V15.5714H9V12.4286H8.14286V12.1429H9.28571V15.5714H10.1429V15.8571H8.14286Z" fill="#161616"/>
<path d="M9.42857 12H8V12.5714H8.85714V15.4286H8V16H10.2857V15.4286H9.42857V12Z" fill="#161616"/>
</g>
<defs>
<clipPath id="clip0_28_1006">
<rect width="16" height="16" fill="white"/>
</clipPath>
</defs>
</svg>
