<svg width="16" height="16" viewBox="0 0 16 16" fill="none" xmlns="http://www.w3.org/2000/svg">
<rect width="16" height="16" fill="white" fill-opacity="0.01"/>
<path d="M10.5001 14.207L8.00006 11.7065L8.70656 11L10.5001 12.793L14.2926 8.99995L15.0001 9.70745L10.5001 14.207Z" fill="#161616"/>
<path d="M6.00006 7.79495L4.70506 6.49995L4.00006 7.20495L6.00006 9.20495L9.50006 5.70495L8.79506 4.99995L6.00006 7.79495Z" fill="#161616"/>
<path d="M5.90971 12.9011C4.74415 12.6847 3.66888 12.1277 2.81979 11.3004C1.97069 10.4731 1.38588 9.41272 1.13925 8.25319C0.892624 7.09365 0.995249 5.88703 1.43416 4.78581C1.87307 3.68458 2.62856 2.73817 3.60517 2.06617C4.58178 1.39418 5.73567 1.02676 6.92103 1.01034C8.10639 0.993925 9.27001 1.32925 10.2649 1.97395C11.2597 2.61864 12.0411 3.54377 12.5103 4.63242C12.9796 5.72107 13.1156 6.92438 12.9012 8.0903L11.9178 7.9096C12.0976 6.93713 11.985 5.93317 11.5942 5.02468C11.2034 4.1162 10.5521 3.34398 9.72245 2.80567C8.89284 2.26736 7.92223 1.98714 6.93336 2.00044C5.94449 2.01374 4.98177 2.31995 4.16692 2.88038C3.35208 3.4408 2.72171 4.23025 2.35552 5.14892C1.98933 6.06758 1.90377 7.0742 2.10965 8.04149C2.31554 9.00878 2.80362 9.89331 3.51218 10.5832C4.22074 11.2731 5.11797 11.7374 6.09041 11.9175L5.90971 12.9011Z" fill="#161616"/>
</svg>
