<svg width="16" height="16" viewBox="0 0 16 16" fill="none" xmlns="http://www.w3.org/2000/svg">
<rect width="16" height="16" fill="white" fill-opacity="0.01"/>
<path d="M8 1.5C5.35105 1.5 2.5 2.126 2.5 3.5V12.5C2.5 13.874 5.35105 14.5 8 14.5C10.649 14.5 13.5 13.874 13.5 12.5V3.5C13.5 2.126 10.649 1.5 8 1.5ZM8 2.5C10.8988 2.5 12.3974 3.21705 12.4984 3.5C12.3974 3.78295 10.8988 4.5 8 4.5C5.07935 4.5 3.5803 3.7722 3.5 3.5088V3.50635C3.5803 3.2278 5.07935 2.5 8 2.5ZM3.5 4.71385C4.56395 5.24755 6.3213 5.5 8 5.5C9.6787 5.5 11.4361 5.24755 12.5 4.71385V6.49365C12.4197 6.7722 10.9207 7.5 8 7.5C5.07495 7.5 3.57545 6.77 3.5 6.5V4.71385ZM3.5 7.71385C4.56395 8.24755 6.3213 8.5 8 8.5C9.6787 8.5 11.4361 8.24755 12.5 7.71385V9.49365C12.4197 9.7722 10.9207 10.5 8 10.5C5.07495 10.5 3.57545 9.77 3.5 9.5V7.71385ZM8 13.5C5.07495 13.5 3.57545 12.77 3.5 12.5V10.7139C4.56395 11.2476 6.3213 11.5 8 11.5C9.6787 11.5 11.4361 11.2476 12.5 10.7139V12.4937C12.4197 12.7722 10.9207 13.5 8 13.5Z" fill="#161616"/>
</svg>
