<svg width="16" height="16" viewBox="0 0 16 16" fill="none" xmlns="http://www.w3.org/2000/svg">
<rect width="16" height="16" fill="white" fill-opacity="0.01"/>
<path d="M14.1236 5.96215H15.711L13.3877 12.9312C13.2344 13.3987 13.0176 13.7439 12.7378 13.9663C12.458 14.1885 12.0576 14.2998 11.5362 14.2998H10.4781V12.9773H11.6167L11.8238 12.3103L9.70756 5.96215H11.3985L12.2837 8.7798L12.7207 10.5279H12.7896L13.2383 8.7798L14.1236 5.96215Z" fill="#161616"/>
<path d="M7.10891 6.73266H7.07421L6.48781 7.90576L4.92386 10.7464L3.39456 7.91726L2.78466 6.65236H2.75051V11.9998H1.10596V3.97266H2.95751L4.92386 7.73316H4.94681L6.89061 3.97266H8.75341V11.9998H7.10891V6.73266Z" fill="#161616"/>
</svg>
