<svg width="16" height="16" viewBox="0 0 16 16" fill="none" xmlns="http://www.w3.org/2000/svg">
<rect width="16" height="16" fill="white" fill-opacity="0.01"/>
<path d="M8 13H10.5C12.43 13 14 11.43 14 9.5V8.5H13V9.5C13 10.88 11.88 12 10.5 12H8V13Z" fill="#161616"/>
<path d="M10.125 7C8.955 7 8 6.045 8 4.875C8 3.98 8.57 3.185 9.39 2.88C9.76 1.775 10.81 1 12 1C13.19 1 14.24 1.775 14.61 2.88C15.435 3.185 16 3.975 16 4.875C16 6.02 15.07 6.97 13.93 7H10.125ZM12 2C11.18 2 10.46 2.585 10.29 3.385L10.22 3.705L9.9 3.77C9.38 3.875 9 4.34 9 4.87C9 5.49 9.505 6 10.125 6H13.915C14.505 5.985 15 5.475 15 4.87C15 4.34 14.62 3.875 14.1 3.77L13.78 3.705L13.71 3.385C13.54 2.585 12.82 2 12 2Z" fill="#161616"/>
<path d="M2 7H3V6C3 4.62 4.12 3.5 5.5 3.5H7.5V2.5H5.5C3.57 2.5 2 4.07 2 6V7Z" fill="#161616"/>
<path d="M5 8.5H2C1.45 8.5 1 8.95 1 9.5V14.5C1 15.05 1.45 15.5 2 15.5H5C5.55 15.5 6 15.05 6 14.5V9.5C6 8.95 5.55 8.5 5 8.5ZM5 9.5V10.5H2V9.5H5ZM5 11.5V12.5H2V11.5H5ZM2 14.5V13.5H5V14.5H2Z" fill="#161616"/>
</svg>
