<svg width="16" height="16" viewBox="0 0 16 16" fill="none" xmlns="http://www.w3.org/2000/svg">
<rect width="16" height="16" fill="white" fill-opacity="0.01"/>
<path d="M11.5 1.00017L12.2965 2.50017L14 2.70717L12.75 3.83367L13 5.50017L11.5 4.56267L10 5.50017L10.25 3.83367L9.00004 2.70717L10.75 2.50017L11.5 1.00017Z" fill="#161616"/>
<path d="M11.3584 6.62467L10.3897 6.37567C10.216 7.04482 9.84794 7.64748 9.33192 8.10752C8.8159 8.56756 8.17511 8.86435 7.4905 8.96038C6.80589 9.05641 6.10818 8.94737 5.48551 8.64705C4.86283 8.34673 4.34314 7.86859 3.99209 7.27305C3.64103 6.67751 3.47436 5.99128 3.51313 5.30105C3.5519 4.61083 3.79437 3.94758 4.20992 3.3951C4.62546 2.84261 5.19543 2.42569 5.84781 2.19699C6.5002 1.96829 7.20574 1.93808 7.87529 2.11017L8.12479 1.14192C7.14896 0.888463 6.11626 0.970423 5.19263 1.37463C4.269 1.77884 3.50808 2.48182 3.03214 3.37061C2.5562 4.25941 2.39288 5.2824 2.56842 6.2752C2.74396 7.26801 3.24818 8.17297 4.00004 8.84467V15.0002L7.00004 13.0002L10 15.0002V8.85407C10.6641 8.26222 11.1369 7.48615 11.3584 6.62467ZM9.00004 13.1315L7.00004 11.7983L5.00004 13.1315V9.52517C5.62054 9.83692 6.30525 9.99953 6.99967 10.0001C7.69409 10.0006 8.37905 9.83906 9.00004 9.52827V13.1315Z" fill="#161616"/>
</svg>
