<svg width="16" height="16" viewBox="0 0 16 16" fill="none" xmlns="http://www.w3.org/2000/svg">
<rect width="16" height="16" fill="white" fill-opacity="0.01"/>
<path d="M10 4H9.00004C9.00004 3.33696 8.73665 2.70107 8.26781 2.23223C7.79897 1.76339 7.16308 1.5 6.50004 1.5C5.837 1.5 5.20111 1.76339 4.73227 2.23223C4.26343 2.70107 4.00004 3.33696 4.00004 4H3.00004C3.00004 3.07174 3.36879 2.1815 4.02517 1.52513C4.68154 0.868749 5.57178 0.5 6.50004 0.5C7.4283 0.5 8.31854 0.868749 8.97491 1.52513C9.63129 2.1815 10 3.07174 10 4Z" fill="#161616"/>
<path d="M12.5 7.5C12.2417 7.50093 11.9882 7.56991 11.765 7.7C11.6302 7.48619 11.4436 7.30992 11.2224 7.18754C11.0013 7.06516 10.7528 7.00065 10.5 7C10.2417 7.00093 9.98821 7.06991 9.76504 7.2C9.58313 6.91376 9.30959 6.69762 8.98904 6.58684C8.6685 6.47606 8.31987 6.47717 8.00004 6.59V4C8.00004 3.60218 7.84201 3.22064 7.5607 2.93934C7.2794 2.65804 6.89787 2.5 6.50004 2.5C6.10222 2.5 5.72069 2.65804 5.43938 2.93934C5.15808 3.22064 5.00004 3.60218 5.00004 4V9.55L3.88504 8.79C3.62944 8.59964 3.31873 8.49783 3.00004 8.5C2.70253 8.49927 2.41152 8.58702 2.16401 8.7521C1.9165 8.91719 1.72368 9.15215 1.61005 9.4271C1.49642 9.70206 1.46713 10.0046 1.52589 10.2963C1.58464 10.5879 1.72881 10.8555 1.94004 11.065L5.94004 14.715C6.50634 15.2219 7.24004 15.5015 8.00004 15.5H10.5C11.4283 15.5 12.3185 15.1313 12.9749 14.4749C13.6313 13.8185 14 12.9283 14 12V9C14 8.60218 13.842 8.22064 13.5607 7.93934C13.2794 7.65804 12.8979 7.5 12.5 7.5ZM13 12C13 12.663 12.7366 13.2989 12.2678 13.7678C11.799 14.2366 11.1631 14.5 10.5 14.5H8.00004C7.49464 14.5061 7.00423 14.3284 6.62004 14L2.64504 10.35C2.55267 10.2569 2.50059 10.1312 2.50004 10C2.50004 9.90714 2.5259 9.81612 2.57472 9.73713C2.62353 9.65815 2.69338 9.59431 2.77643 9.55279C2.85949 9.51126 2.95246 9.49368 3.04494 9.50202C3.13742 9.51036 3.22576 9.54429 3.30004 9.6L6.00004 11.45V4C6.00004 3.86739 6.05272 3.74021 6.14649 3.64645C6.24026 3.55268 6.36743 3.5 6.50004 3.5C6.63265 3.5 6.75983 3.55268 6.85359 3.64645C6.94736 3.74021 7.00004 3.86739 7.00004 4V9.5H8.00004V8C8.00004 7.86739 8.05272 7.74021 8.14649 7.64645C8.24025 7.55268 8.36743 7.5 8.50004 7.5C8.63265 7.5 8.75983 7.55268 8.85359 7.64645C8.94736 7.74021 9.00004 7.86739 9.00004 8V9.5H10V8.5C10 8.36739 10.0527 8.24021 10.1465 8.14645C10.2403 8.05268 10.3674 8 10.5 8C10.6326 8 10.7598 8.05268 10.8536 8.14645C10.9474 8.24021 11 8.36739 11 8.5V9.5H12V9C12 8.86739 12.0527 8.74021 12.1465 8.64645C12.2403 8.55268 12.3674 8.5 12.5 8.5C12.6326 8.5 12.7598 8.55268 12.8536 8.64645C12.9474 8.74021 13 8.86739 13 9V12Z" fill="#161616"/>
</svg>
