<svg width="16" height="16" viewBox="0 0 16 16" fill="none" xmlns="http://www.w3.org/2000/svg">
<rect width="16" height="16" fill="white" fill-opacity="0.01"/>
<path d="M9.99989 10H12.9999V9H9.99989V10Z" fill="#161616"/>
<path d="M11.9999 14H14.9999V13H11.9999V14Z" fill="#161616"/>
<path d="M10.9999 12H13.9999V11H10.9999V12Z" fill="#161616"/>
<path d="M8.50134 10C8.49777 9.5781 8.38521 9.16428 8.17457 8.79871C7.96393 8.43313 7.66236 8.12822 7.29914 7.91355L10.9999 1.5L10.1344 1L6.34654 7.563C5.88157 7.45909 5.39797 7.47343 4.93997 7.6047C4.48198 7.73598 4.06421 7.98 3.72489 8.31445C1.85309 10.12 1.99804 14.3411 2.00489 14.52C2.01006 14.6491 2.06501 14.7712 2.15822 14.8607C2.25144 14.9502 2.37567 15.0001 2.50489 15H10.0005C10.1054 15 10.2077 14.967 10.2928 14.9056C10.378 14.8443 10.4416 14.7577 10.4748 14.6581C10.508 14.5586 10.509 14.4511 10.4777 14.3509C10.4465 14.2507 10.3844 14.163 10.3005 14.1C8.53064 12.772 8.50134 10.0268 8.50134 10ZM5.96489 8.49855C6.36507 8.50293 6.74816 8.66144 7.03445 8.9411C7.32074 9.22076 7.48818 9.60003 7.50194 10C7.50194 10.019 7.50289 10.104 7.51034 10.2344L4.56064 8.9226C4.75492 8.76239 4.97912 8.64239 5.22019 8.56959C5.46126 8.4968 5.7144 8.47265 5.96489 8.49855ZM7.72459 14C7.32504 13.593 7.0704 13.066 6.99989 12.5H5.99989C6.03574 13.0322 6.20204 13.5473 6.48409 14H5.37244C5.16679 13.3511 5.04167 12.6794 4.99989 12H3.99989C4.03217 12.6774 4.1438 13.3486 4.33249 14H2.99989C3.01539 13.0818 3.14489 11.054 3.90124 9.72365L7.66774 11.3987C7.84889 12.3383 8.2349 13.2265 8.79829 14H7.72459Z" fill="#161616"/>
</svg>
