<svg width="16" height="16" viewBox="0 0 16 16" fill="none" xmlns="http://www.w3.org/2000/svg">
<rect width="16" height="16" fill="white" fill-opacity="0.01"/>
<path d="M6.00002 12.5C5.63087 12.5 5.31192 12.7024 5.13867 13H2.32362L3.64757 10.4538C3.76122 10.4814 3.87802 10.5 3.99997 10.5C4.82712 10.5 5.49997 9.82715 5.49997 9C5.49997 8.17285 4.82712 7.5 3.99997 7.5C3.17282 7.5 2.49997 8.17285 2.49997 9C2.49997 9.33935 2.61742 9.64895 2.80807 9.90065L1.05637 13.2693C0.975817 13.4244 0.981917 13.6101 1.07262 13.7596C1.16322 13.9087 1.32532 14 1.49997 14H5.13862C5.31182 14.2976 5.63082 14.5 5.99997 14.5C6.55222 14.5 6.99997 14.0523 6.99997 13.5C6.99997 12.9478 6.55227 12.5 6.00002 12.5ZM4.00002 8.5C4.27577 8.5 4.50002 8.72435 4.50002 9C4.50002 9.27565 4.27577 9.5 4.00002 9.5C3.72427 9.5 3.50002 9.27565 3.50002 9C3.50002 8.72435 3.72427 8.5 4.00002 8.5Z" fill="#161616"/>
<path d="M14.9436 13.2693L12.9231 9.3838C12.9724 9.26565 13 9.136 13 9C13 8.44775 12.5523 8 12 8C11.4478 8 11 8.44775 11 9C11 9.55225 11.4478 10 12 10C12.0379 10 12.0739 9.9929 12.1106 9.98875L13.6764 13H11.4079C11.2008 12.4194 10.651 12 10 12C9.17287 12 8.50002 12.6729 8.50002 13.5C8.50002 14.3271 9.17287 15 10 15C10.651 15 11.2008 14.5806 11.4079 14H14.5C14.6747 14 14.8368 13.9087 14.9274 13.7595C15.0181 13.6101 15.0242 13.4244 14.9436 13.2693ZM10 14C9.72427 14 9.50002 13.7756 9.50002 13.5C9.50002 13.2244 9.72427 13 10 13C10.2758 13 10.5 13.2244 10.5 13.5C10.5 13.7756 10.2758 14 10 14Z" fill="#161616"/>
<path d="M10.5 4C10.3781 4 10.2611 4.01855 10.1476 4.04615L8.44361 0.7693C8.35756 0.60375 8.17872 0.5 8.00002 0.5C7.82132 0.5 7.64247 0.60375 7.55642 0.7693L5.61072 4.51125C5.57387 4.5071 5.53782 4.5 5.50002 4.5C4.94777 4.5 4.50002 4.94775 4.50002 5.5C4.50002 6.05225 4.94777 6.5 5.50002 6.5C6.05227 6.5 6.50002 6.05225 6.50002 5.5C6.50002 5.364 6.47242 5.2344 6.42312 5.1162L8.00002 2.08375L9.30812 4.59935C9.11747 4.85105 9.00002 5.16065 9.00002 5.5C9.00002 6.32715 9.67287 7 10.5 7C11.3272 7 12 6.32715 12 5.5C12 4.67285 11.3272 4 10.5 4ZM10.5 6C10.2243 6 10 5.77565 10 5.5C10 5.22435 10.2243 5 10.5 5C10.7758 5 11 5.22435 11 5.5C11 5.77565 10.7758 6 10.5 6Z" fill="#161616"/>
</svg>
