<svg width="16" height="16" viewBox="0 0 16 16" fill="none" xmlns="http://www.w3.org/2000/svg">
<rect width="16" height="16" fill="white" fill-opacity="0.01"/>
<path d="M13.2933 8.36018C13.2933 8.23518 13.2933 8.11018 13.2933 7.98018C13.2933 7.85018 13.2933 7.72518 13.2933 7.59518L14.2533 6.75518C14.4303 6.59921 14.5464 6.3857 14.5812 6.15238C14.616 5.91907 14.5671 5.68098 14.4433 5.48018L13.2633 3.48018C13.1757 3.32832 13.0496 3.20217 12.8978 3.11441C12.7459 3.02666 12.5737 2.98036 12.3983 2.98018C12.2897 2.97935 12.1816 2.99624 12.0783 3.03018L10.8633 3.44018C10.6536 3.30079 10.4348 3.17551 10.2083 3.06518L9.95334 1.80518C9.90762 1.57499 9.78238 1.3682 9.59957 1.22103C9.41675 1.07387 9.18799 0.995687 8.95334 1.00018H6.61334C6.37869 0.995687 6.14993 1.07387 5.96711 1.22103C5.78429 1.3682 5.65906 1.57499 5.61334 1.80518L5.35834 3.06518C5.13031 3.17548 4.90982 3.30076 4.69834 3.44018L3.50834 3.01018C3.40399 2.983 3.29593 2.97286 3.18834 2.98018C3.01298 2.98036 2.84074 3.02666 2.68892 3.11441C2.5371 3.20217 2.41102 3.32832 2.32334 3.48018L1.14334 5.48018C1.02663 5.68068 0.983265 5.91551 1.02066 6.14447C1.05806 6.37342 1.1739 6.58225 1.34834 6.73518L2.29334 7.60018C2.29334 7.72518 2.29334 7.85018 2.29334 7.98018C2.29334 8.11018 2.29334 8.23518 2.29334 8.36518L1.34834 9.20518C1.16897 9.35918 1.04997 9.57175 1.01244 9.80516C0.97491 10.0386 1.02129 10.2777 1.14334 10.4802L2.32334 12.4802C2.41102 12.6321 2.5371 12.7582 2.68892 12.846C2.84074 12.9337 3.01298 12.98 3.18834 12.9802C3.29701 12.981 3.4051 12.9641 3.50834 12.9302L4.72334 12.5202C4.93311 12.6596 5.15193 12.7849 5.37834 12.8952L5.63334 14.1552C5.67906 14.3854 5.80429 14.5922 5.98711 14.7393C6.16993 14.8865 6.39869 14.9647 6.63334 14.9602H8.99334C9.22799 14.9647 9.45675 14.8865 9.63957 14.7393C9.82238 14.5922 9.94762 14.3854 9.99334 14.1552L10.2483 12.8952C10.4764 12.7849 10.6969 12.6596 10.9083 12.5202L12.1183 12.9302C12.2216 12.9641 12.3297 12.981 12.4383 12.9802C12.6137 12.98 12.7859 12.9337 12.9378 12.846C13.0896 12.7582 13.2157 12.6321 13.3033 12.4802L14.4433 10.4802C14.56 10.2797 14.6034 10.0449 14.566 9.8159C14.5286 9.58695 14.4128 9.37812 14.2383 9.22518L13.2933 8.36018ZM12.3983 11.9802L10.6833 11.4002C10.2819 11.7402 9.82304 12.0061 9.32834 12.1852L8.97334 13.9802H6.61334L6.25834 12.2052C5.76755 12.021 5.3112 11.7556 4.90834 11.4202L3.18834 11.9802L2.00834 9.98018L3.36834 8.78018C3.27589 8.26261 3.27589 7.73275 3.36834 7.21518L2.00834 5.98018L3.18834 3.98018L4.90334 4.56018C5.30481 4.22013 5.76364 3.95431 6.25834 3.77518L6.61334 1.98018H8.97334L9.32834 3.75518C9.81913 3.93939 10.2755 4.20476 10.6783 4.54018L12.3983 3.98018L13.5783 5.98018L12.2183 7.18018C12.3108 7.69775 12.3108 8.22761 12.2183 8.74518L13.5783 9.98018L12.3983 11.9802Z" fill="#161616"/>
<path d="M7.79334 10.9802C7.2 10.9802 6.61998 10.8042 6.12663 10.4746C5.63328 10.1449 5.24876 9.67641 5.0217 9.12823C4.79464 8.58006 4.73523 7.97686 4.85098 7.39491C4.96674 6.81297 5.25246 6.27842 5.67202 5.85886C6.09158 5.43931 6.62613 5.15358 7.20807 5.03783C7.79001 4.92207 8.39321 4.98148 8.94139 5.20855C9.48957 5.43561 9.9581 5.82013 10.2877 6.31347C10.6174 6.80682 10.7933 7.38684 10.7933 7.98018C10.7973 8.37526 10.7225 8.76717 10.5731 9.13296C10.4238 9.49875 10.203 9.83107 9.9236 10.1104C9.64422 10.3898 9.31191 10.6107 8.94612 10.76C8.58033 10.9093 8.18842 10.9842 7.79334 10.9802ZM7.79334 5.98018C7.52901 5.97403 7.26618 6.02155 7.02075 6.11988C6.77531 6.21821 6.55237 6.3653 6.36542 6.55226C6.17846 6.73922 6.03136 6.96216 5.93303 7.20759C5.8347 7.45303 5.78718 7.71586 5.79334 7.98018C5.78718 8.24451 5.8347 8.50734 5.93303 8.75278C6.03136 8.99821 6.17846 9.22115 6.36542 9.40811C6.55237 9.59507 6.77531 9.74216 7.02075 9.84049C7.26618 9.93882 7.52901 9.98634 7.79334 9.98018C8.05767 9.98634 8.3205 9.93882 8.56593 9.84049C8.81137 9.74216 9.0343 9.59507 9.22126 9.40811C9.40822 9.22115 9.55531 8.99821 9.65364 8.75278C9.75197 8.50734 9.7995 8.24451 9.79334 7.98018C9.7995 7.71586 9.75197 7.45303 9.65364 7.20759C9.55531 6.96216 9.40822 6.73922 9.22126 6.55226C9.0343 6.3653 8.81137 6.21821 8.56593 6.11988C8.3205 6.02155 8.05767 5.97403 7.79334 5.98018Z" fill="#161616"/>
</svg>
