<svg width="16" height="16" viewBox="0 0 16 16" fill="none" xmlns="http://www.w3.org/2000/svg">
<rect width="16" height="16" fill="white" fill-opacity="0.01"/>
<path d="M11 11.9956H5C2.79445 11.9956 1 10.2013 1 7.99561C1 5.78996 2.79445 3.99561 5 3.99561H11C13.2055 3.99561 15 5.78996 15 7.99561C15 10.2013 13.2055 11.9956 11 11.9956ZM5 4.99561C3.3457 4.99561 2 6.34146 2 7.99561C2 9.64976 3.3457 10.9956 5 10.9956H11C12.6543 10.9956 14 9.64976 14 7.99561C14 6.34146 12.6543 4.99561 11 4.99561H5ZM6.5 7.99561C6.5 7.16716 5.82845 6.49561 5 6.49561C4.17155 6.49561 3.5 7.16716 3.5 7.99561C3.5 8.82406 4.17155 9.4956 5 9.4956C5.82845 9.4956 6.5 8.82406 6.5 7.99561Z" fill="#161616"/>
</svg>
