<svg width="1209" height="256" viewBox="0 0 1209 256" fill="none" xmlns="http://www.w3.org/2000/svg">
<path d="M1095.06 126.732C1095.06 156.134 1114.57 176.158 1143.98 176.158C1168.31 176.158 1185.04 162.217 1190.36 140.673H1208.1C1202.53 172.356 1178.95 192.633 1143.98 192.633C1103.93 192.633 1077.31 166.273 1077.31 126.732C1077.31 87.1915 1103.93 60.8312 1143.98 60.8312C1178.95 60.8312 1202.53 81.1084 1208.1 112.791H1190.36C1185.04 91.247 1168.31 77.3064 1143.98 77.3064C1114.57 77.3064 1095.06 97.3301 1095.06 126.732Z" fill="white" fill-opacity="0.11"/>
<path d="M1041.91 21.5447C1041.91 14.7012 1046.47 10.1388 1053.31 10.1388C1060.16 10.1388 1064.72 14.7012 1064.72 21.5447C1064.72 28.3883 1060.16 32.9506 1053.31 32.9506C1046.47 32.9506 1041.91 28.3883 1041.91 21.5447ZM1044.44 190.099V63.3664H1062.19V190.099H1044.44Z" fill="white" fill-opacity="0.11"/>
<path d="M1001.5 52.7211C1001.5 44.8637 1006.82 39.7944 1015.18 39.7944C1023.55 39.7944 1029.12 44.8637 1029.12 52.7211C1029.12 60.3251 1023.55 65.3944 1015.18 65.3944C1006.82 65.3944 1001.5 60.3251 1001.5 52.7211ZM898.335 119.129C898.335 84.1508 923.428 60.832 961.194 60.832C998.961 60.832 1024.05 84.1508 1024.05 117.608C1024.05 150.559 1005.55 166.02 990.85 166.02V168.555C1005.55 168.555 1025.32 176.159 1025.32 203.026C1025.32 236.483 1002.26 256 962.462 256C921.4 256 899.602 235.216 899.602 196.436H917.345C917.345 225.077 932.553 239.525 962.462 239.525C992.117 239.525 1007.58 226.852 1007.58 203.026C1007.58 174.891 975.895 177.426 961.194 177.426C923.428 177.426 898.335 154.107 898.335 119.129ZM916.078 119.129C916.078 144.729 933.567 160.951 961.194 160.951C988.822 160.951 1006.31 150.052 1006.31 119.129C1006.31 93.0221 989.076 77.3073 961.194 77.3073C933.567 77.3073 916.078 93.2755 916.078 119.129Z" fill="white" fill-opacity="0.11"/>
<path d="M752.285 126.732C752.285 87.1915 778.899 60.8312 818.947 60.8312C858.994 60.8312 885.608 87.1915 885.608 126.732C885.608 166.273 858.994 192.633 818.947 192.633C778.899 192.633 752.285 166.273 752.285 126.732ZM770.028 126.732C770.028 156.134 789.545 176.158 818.947 176.158C848.348 176.158 867.865 156.134 867.865 126.732C867.865 97.3301 848.348 77.3064 818.947 77.3064C789.545 77.3064 770.028 97.3301 770.028 126.732Z" fill="white" fill-opacity="0.11"/>
<path d="M721.583 190.099V0H739.325V190.099H721.583Z" fill="white" fill-opacity="0.11"/>
<path d="M602.434 124.958V190.099H584.692V0H602.434V90.2335H604.969C604.969 75.2791 621.951 60.8316 650.592 60.8316C686.584 60.8316 708.636 83.1365 708.636 118.368V190.099H690.893V118.875C690.893 92.5147 676.192 77.3068 650.339 77.3068C618.656 77.3068 602.434 98.3444 602.434 124.958Z" fill="white" fill-opacity="0.11"/>
<path d="M458.613 126.732C458.613 156.134 478.13 176.158 507.532 176.158C531.865 176.158 548.594 162.217 553.916 140.673H571.659C566.083 172.356 542.51 192.633 507.532 192.633C467.485 192.633 440.871 166.273 440.871 126.732C440.871 87.1915 467.485 60.8312 507.532 60.8312C542.51 60.8312 566.083 81.1084 571.659 112.791H553.916C548.594 91.247 531.865 77.3064 507.532 77.3064C478.13 77.3064 458.613 97.3301 458.613 126.732Z" fill="white" fill-opacity="0.11"/>
<path d="M437.773 190.099C388.601 190.099 368.831 172.61 368.831 128.76V37.006H386.574V64.8871H437.773V80.8554H386.574V130.788C386.574 162.978 399.5 173.624 437.773 173.624V190.099Z" fill="white" fill-opacity="0.11"/>
<path d="M222.535 127.999C222.535 87.9519 248.895 60.8312 289.196 60.8312C329.243 60.8312 355.857 87.1915 355.857 126.732V190.098H338.115V165.766L335.834 166.019V168.3C335.834 177.172 319.865 192.633 287.168 192.633C249.149 192.633 222.535 166.526 222.535 127.999ZM240.277 126.732C240.277 157.401 258.273 175.904 288.182 175.904C325.441 175.904 338.115 156.134 338.115 126.732C338.115 96.3163 319.358 77.3064 289.196 77.3064C260.048 77.3064 240.277 97.3301 240.277 126.732Z" fill="white" fill-opacity="0.11"/>
<path d="M152.839 60.8312C185.536 60.8312 209.869 80.348 209.869 124.704V190.098H192.126V122.677C192.126 89.7262 174.637 77.3064 154.867 77.3064C126.986 77.3064 113.806 97.0767 113.806 122.677V190.098H96.0632V122.677C96.0632 97.0767 82.883 77.3064 55.0019 77.3064C35.2316 77.3064 17.7426 89.7262 17.7426 122.677V190.098H1.14441e-05V124.704C1.14441e-05 80.348 24.3326 60.8312 57.0296 60.8312C85.4177 60.8312 103.667 79.5876 103.667 99.3579H106.202C106.202 79.5876 124.451 60.8312 152.839 60.8312Z" fill="white" fill-opacity="0.11"/>
</svg>
