<svg width="76" height="76" viewBox="0 0 76 76" fill="none" xmlns="http://www.w3.org/2000/svg">
<g clip-path="url(#clip0_211_8)">
<path d="M44.74 0H16.4482C13.7241 0 11.5034 2.22071 11.5034 4.95958V70.8554C11.5034 73.5943 13.7241 75.8002 16.463 75.815H66.1328C68.8717 75.815 71.0776 73.5943 71.0924 70.8554L70.9444 21.911L44.74 0Z" fill="#F6E5FF"/>
<path d="M44.74 0L44.666 21.3928C44.666 21.3928 44.74 21.911 45.1841 21.911H70.9443L44.74 0Z" fill="#5A189A"/>
<path d="M6.73634 36.5234H56.7171C57.8274 36.5234 58.7305 37.4265 58.7305 38.5369V60.8624C58.7305 61.9728 57.8274 62.8758 56.7171 62.8758H6.73634C5.62599 62.8758 4.7229 61.9728 4.7229 60.8624V38.5369C4.7229 37.4265 5.62599 36.5234 6.73634 36.5234Z" fill="#5A189A"/>
<path d="M22.2221 50.8395L25.2274 51.7426C25.0646 52.5124 24.7389 53.223 24.2799 53.8448C23.8654 54.4074 23.3028 54.8368 22.6662 55.118C22.0296 55.3993 21.2005 55.5474 20.2086 55.5474C19.0094 55.5474 18.0175 55.3697 17.2477 55.0292C16.4778 54.6887 15.8264 54.0669 15.2786 53.1786C14.7309 52.2903 14.4496 51.1652 14.4496 49.7883C14.4496 47.9526 14.9381 46.5461 15.9153 45.5542C16.8924 44.5623 18.2692 44.0737 20.0606 44.0737C21.4522 44.0737 22.5626 44.355 23.3472 44.9176C24.1467 45.4802 24.7389 46.3537 25.1238 47.5232L22.1036 48.1894C22.0296 47.923 21.926 47.6713 21.7779 47.4492C21.6003 47.1975 21.3486 46.9903 21.0673 46.8422C20.7712 46.6942 20.4603 46.6201 20.1346 46.6349C19.424 46.6053 18.743 46.9606 18.358 47.5676C18.0471 48.0266 17.8843 48.752 17.8843 49.7587C17.8843 50.9875 18.0767 51.8314 18.4469 52.2903C18.817 52.7493 19.3351 52.9714 20.0162 52.9862C20.6676 52.9862 21.1709 52.8085 21.4966 52.4384C21.8223 52.0831 22.0592 51.5501 22.2221 50.8395Z" fill="white"/>
<path d="M26.2935 51.7128L29.5505 51.5055C29.6245 52.0385 29.7578 52.4382 29.9798 52.7195C30.3351 53.1637 30.8385 53.3857 31.4899 53.3857C31.9785 53.3857 32.3634 53.2673 32.6151 53.0452C32.8668 52.8528 33.0148 52.5567 33.0148 52.2458C33.0148 51.9497 32.8667 51.6684 32.6299 51.4759C32.3782 51.2539 31.8008 51.0318 30.8681 50.8245C29.3728 50.484 28.2921 50.0399 27.6555 49.4773C27.0189 48.9443 26.6636 48.1597 26.6932 47.3306C26.6932 46.7532 26.8708 46.1906 27.1965 45.7169C27.5667 45.1839 28.0848 44.7694 28.6918 44.5177C29.358 44.2216 30.2611 44.0884 31.4159 44.0884C32.8371 44.0884 33.9179 44.3549 34.6581 44.873C35.3984 45.3912 35.8425 46.2351 35.9905 47.3898L32.7631 47.5823C32.6743 47.0789 32.4966 46.7236 32.2301 46.4867C31.9489 46.2647 31.5787 46.1462 31.0902 46.1462C30.6905 46.1462 30.3944 46.2351 30.1871 46.3979C29.9946 46.546 29.8762 46.768 29.8762 47.0197C29.8762 47.2122 29.9798 47.3898 30.1279 47.4935C30.2907 47.6415 30.6757 47.7748 31.2826 47.908C32.7779 48.2337 33.8587 48.5594 34.4953 48.8851C35.0727 49.1516 35.5612 49.5809 35.9165 50.1139C36.2126 50.6025 36.3607 51.1798 36.3607 51.7572C36.3607 52.453 36.1534 53.1489 35.7685 53.7263C35.3687 54.3332 34.7914 54.807 34.1252 55.0883C33.4145 55.3992 32.5262 55.5472 31.4603 55.5472C29.5801 55.5472 28.2625 55.1771 27.5371 54.4517C26.7968 53.7411 26.3527 52.7491 26.2935 51.7128Z" fill="white"/>
<path d="M36.9823 44.2808H40.565L43.067 52.2605L45.5246 44.2808H49.0037L44.888 55.3695H41.172L36.9823 44.2808Z" fill="white"/>
</g>
<defs>
<clipPath id="clip0_211_8">
<rect width="75.8002" height="75.8002" fill="white"/>
</clipPath>
</defs>
</svg>
