<svg width="95" height="77" viewBox="0 0 95 77" fill="none" xmlns="http://www.w3.org/2000/svg">
<g clip-path="url(#clip0_211_2)">
<path d="M64.4075 24.5527L53.9161 27.9785L44.7887 32.0069L42.2352 32.6811C41.5849 33.2996 40.903 33.9262 40.1655 34.5605C39.3566 35.2583 38.6033 35.8928 38.0243 36.3527C37.382 36.8602 36.4304 37.8118 35.9467 38.4144C35.2251 39.3184 34.6541 40.2779 34.4083 41.0155C33.9721 42.3478 34.1863 43.6958 35.0269 44.9409C36.1053 46.5268 38.2544 48.1445 40.7602 49.2468C42.037 49.8099 44.186 50.5315 45.8037 50.9359C48.4918 51.6179 53.694 52.3554 56.5566 52.4665C57.1354 52.4903 57.9127 52.4903 57.9443 52.4665C58.0078 52.4267 58.4519 51.5783 58.9674 50.5237C60.7279 46.9313 61.9967 43.561 62.6865 40.6825C63.0989 38.938 63.424 36.6144 63.638 33.8628C63.6936 33.0936 63.7173 30.5163 63.6697 29.644C63.5983 28.2166 63.4714 27.0589 63.2733 25.9249C63.2416 25.7583 63.2335 25.6076 63.2495 25.5997C63.2811 25.5759 63.3763 25.5442 64.6689 25.1714L64.4073 24.553V24.5528H64.4075V24.5527ZM62.0126 25.9564C62.1078 25.9564 62.3614 28.3909 62.4248 29.9294C62.4408 30.2545 62.4327 30.4686 62.4169 30.4686C62.3536 30.4686 61.0768 29.7153 60.165 29.1444C59.3719 28.6448 57.8653 27.6456 57.6274 27.4553C57.5479 27.3998 57.5558 27.3919 58.2062 27.1698C59.3084 26.797 61.9254 25.9564 62.0126 25.9564ZM56.6678 27.7169C56.7392 27.7169 56.9215 27.8199 57.3576 28.0896C58.9912 29.1126 61.2117 30.3497 62.1632 30.7621C62.4566 30.889 62.4882 30.8413 61.8143 31.3013C60.371 32.2846 58.5708 33.252 56.3663 34.2274C55.9778 34.4019 55.6527 34.5367 55.6448 34.5367C55.629 34.5367 55.6764 34.3385 55.7398 34.1006C56.2711 32.1259 56.5725 30.1276 56.5885 28.5257C56.5964 27.7327 56.5964 27.7327 56.6678 27.709C56.6518 27.7169 56.6597 27.7169 56.6678 27.7169ZM55.5655 28.1372C55.613 28.1847 55.5813 29.9611 55.5179 30.4448C55.3751 31.6026 55.1531 32.681 54.7884 33.8944C54.7012 34.1876 54.6218 34.4336 54.6061 34.4494C54.5742 34.489 53.4878 33.4264 53.1309 33.0141C52.5124 32.3003 52.0288 31.5866 51.6719 30.8889C51.4895 30.532 51.2041 29.8342 51.2278 29.8104C51.3547 29.7232 55.5338 28.1055 55.5655 28.1372ZM50.3792 30.1752C50.3871 30.1752 50.395 30.1752 50.4031 30.1831C50.4189 30.1989 50.4745 30.3258 50.5221 30.4685C50.7757 31.1585 51.3466 32.1735 51.8384 32.8238C52.3776 33.5375 53.0835 34.2987 53.6701 34.7983C53.8606 34.9569 54.0349 35.1075 54.0586 35.1314C54.1063 35.179 54.1222 35.171 52.8295 35.6627C51.3309 36.2336 49.6972 36.8046 47.8257 37.4072C47.3787 37.5514 46.932 37.6968 46.4858 37.8434C46.4143 37.8673 46.4381 37.8275 46.6443 37.5025C47.5721 36.0512 48.9835 33.2044 49.7766 31.1902C49.9114 30.8412 50.0462 30.4924 50.0701 30.4131C50.1018 30.302 50.1414 30.2624 50.2444 30.2068C50.2999 30.1911 50.3555 30.1752 50.3792 30.1752ZM48.7934 30.8333C48.8171 30.8493 48.4127 31.6977 48.0162 32.4748C47.2469 33.9736 46.4064 35.4487 45.2803 37.2408C45.09 37.55 44.9077 37.8356 44.8839 37.8673C44.8443 37.9228 44.8283 37.9069 44.7015 37.6611C44.4318 37.1298 44.2097 36.4478 44.0908 35.8213C43.9718 35.2027 43.9957 34.1243 44.1305 33.4582C44.2335 32.9666 44.2257 32.9745 44.4635 32.8555C45.4786 32.3401 48.7616 30.8016 48.7934 30.8333ZM62.4725 31.3885V31.7215C62.4725 33.4899 62.2822 35.9165 62.0046 37.685C61.957 37.9942 61.9172 38.2479 61.9094 38.2559C61.9094 38.2559 61.6795 38.1925 61.4099 38.1131C60.2204 37.7404 58.9278 37.1932 57.762 36.551C56.9927 36.1307 55.8747 35.4407 55.9065 35.4089C55.9143 35.4011 56.2474 35.2266 56.6359 35.0204C58.1904 34.2116 59.6811 33.3393 60.9737 32.4749C61.4574 32.1498 62.1869 31.6265 62.3456 31.4837L62.4725 31.3885ZM42.8061 33.7356C42.8378 33.7356 42.8299 33.7991 42.7823 34.0846C42.7506 34.2908 42.711 34.6715 42.6952 34.933C42.6316 36.0908 42.8221 36.9473 43.393 38.1209C43.5516 38.4461 43.6786 38.7157 43.6705 38.7236C43.615 38.7712 38.3654 40.3097 36.7159 40.7617C36.2243 40.8964 35.7961 41.0154 35.7642 41.0232C35.7088 41.0392 35.7009 41.0313 35.7246 40.8963C35.907 39.7307 36.7952 38.2081 38.0322 36.9234C38.857 36.067 39.5152 35.5675 40.6413 34.9251C41.4501 34.4652 42.6951 33.7754 42.7903 33.7436C42.7903 33.7356 42.7982 33.7356 42.8061 33.7356ZM55.1769 35.9481C55.1848 35.9402 55.3751 36.0434 55.6051 36.1781C57.3021 37.1615 59.6652 38.0735 61.6793 38.5413L61.8618 38.581L61.608 38.7236C60.5534 39.3104 57.088 40.7536 53.5434 42.078C53.0278 42.2683 52.5204 42.4587 52.4251 42.4983C52.3299 42.5379 52.2427 42.5617 52.2427 42.5538C52.2427 42.5458 52.3855 42.2683 52.5678 41.9273C53.559 40.0717 54.5583 37.8117 55.0658 36.2415C55.1294 36.0909 55.1689 35.9561 55.1769 35.9481ZM53.9161 36.3605C53.9241 36.3686 53.8606 36.535 53.7812 36.7253C53.0914 38.3985 52.1872 40.2225 51.0295 42.2684C50.7362 42.7918 50.4903 43.2122 50.4822 43.2122C50.4745 43.2122 50.2365 43.0693 49.951 42.8949C48.2698 41.864 46.779 40.5952 45.8037 39.366L45.6609 39.1916L46.3825 38.9933C48.9677 38.2876 51.1642 37.5263 53.345 36.5906C53.6543 36.4637 53.9082 36.3605 53.9161 36.3605ZM61.7509 39.0964C61.7588 39.2788 61.3543 40.9124 61.0212 42.0938C60.7437 43.0851 60.5057 43.8623 60.0697 45.2341C59.8794 45.8369 59.713 46.3364 59.7049 46.3364C59.697 46.3364 59.6494 46.3285 59.6019 46.3127C57.2467 45.8843 55.1373 45.2896 53.1548 44.4967C52.5996 44.2746 51.8067 43.9177 51.7591 43.8781C51.7433 43.8621 52.2191 43.6402 52.8218 43.3785C56.4299 41.8004 60.1728 40.0082 61.4574 39.2391C61.6081 39.1439 61.727 39.0964 61.7509 39.0964ZM43.6626 39.715C43.6785 39.7308 42.6714 41.182 41.2598 43.1565C40.7682 43.8465 40.1972 44.6553 39.9831 44.9566C39.769 45.258 39.4439 45.7338 39.2615 46.0193L38.9283 46.5347L38.5714 46.2334C38.1511 45.8844 37.4217 45.139 37.0965 44.7267C36.4145 43.8782 35.9547 42.9821 35.7723 42.1654C35.685 41.7847 35.685 41.5943 35.7642 41.5707C35.8831 41.5389 38.0005 41.0393 39.9831 40.5793C41.0853 40.3256 42.362 40.0243 42.8219 39.9133C43.2819 39.8021 43.6547 39.715 43.6626 39.715ZM44.6776 40.1035L44.9313 40.389C46.0733 41.6657 47.239 42.6096 48.6506 43.4341C48.9044 43.5769 49.0946 43.7037 49.0787 43.7118C49.0233 43.7514 44.178 45.472 41.9338 46.2492C40.673 46.6933 39.6341 47.0501 39.6263 47.0501C39.6184 47.0501 39.547 47.0026 39.4676 46.947L39.3249 46.8439L39.5549 46.5109C40.3002 45.4324 41.2361 44.2509 43.2741 41.7926L44.6776 40.1035ZM51.0058 44.6315C51.0136 44.6236 51.3626 44.7504 51.7907 44.9092C52.8218 45.2977 53.6384 45.5434 54.7328 45.821C56.081 46.1621 58.0317 46.4951 59.1816 46.5902C59.3561 46.606 59.4512 46.622 59.4195 46.6458C59.3639 46.6775 58.1983 47.0661 57.3418 47.3357C55.9778 47.7639 51.8146 48.993 48.4206 49.9684C47.7941 50.1508 47.2549 50.3015 47.2232 50.3094C47.1439 50.3253 46.8822 50.2538 46.8822 50.2221C46.8822 50.2064 47.0725 49.9605 47.3025 49.6909C48.4443 48.3269 49.5784 46.8044 50.5221 45.3611C50.7837 44.9645 51.0058 44.6394 51.0058 44.6315ZM49.61 44.6712C49.6179 44.6791 49.055 45.5831 48.0718 47.1373C47.6514 47.7955 47.1835 48.5409 47.0169 48.8027C46.8583 49.0564 46.6204 49.453 46.4857 49.6749L46.2557 50.0794L46.1368 50.0477C45.8512 49.9684 43.845 49.2625 43.3136 49.0485C42.6554 48.7867 41.9734 48.4696 41.4659 48.2C40.8316 47.859 40.0386 47.3514 40.102 47.3356C40.1178 47.3278 41.2043 47.0342 42.5126 46.6775C45.986 45.7337 47.9129 45.1866 49.1739 44.7901C49.4039 44.7187 49.6021 44.6632 49.61 44.6712ZM59.4829 46.9866H59.4908C59.5225 47.066 58.2379 50.6345 57.7699 51.7605C57.6669 52.0142 57.6274 52.0778 57.5718 52.0697C57.437 52.0619 55.5735 51.8002 54.4394 51.6336C52.4649 51.3323 49.1501 50.7533 48.3175 50.5631L48.1272 50.5235L49.3086 50.2537C51.8463 49.6828 53.0675 49.3736 54.3045 48.9929C55.8668 48.5171 57.4132 47.9223 58.9753 47.1929C59.2211 47.0818 59.4274 46.9946 59.4829 46.9866Z" fill="url(#paint0_linear_211_2)"/>
<path d="M53.591 0.0965976C53.4165 0.072938 50.6013 1.08796 48.7854 1.82535C46.3349 2.82465 44.4319 3.7763 43.2582 4.60084C42.8221 4.91024 42.2748 5.45733 42.1877 5.6714C42.156 5.75072 42.1401 5.84587 42.1401 5.94102L43.2027 6.94814L45.7323 7.75699L51.7512 8.8355L58.6344 10.0171L58.7058 9.42234C58.6821 9.42234 58.6661 9.41444 58.6425 9.41444L57.7383 9.27164L57.556 8.94655C56.6202 7.29708 55.5893 5.25113 54.9867 3.8713C54.5189 2.80074 54.0748 1.56378 53.8289 0.67558C53.6941 0.136347 53.6783 0.104642 53.5912 0.0967438V0.0965607H53.591V0.0965976ZM53.4639 0.501151H53.4721C53.4799 0.508976 53.5116 0.731164 53.5434 0.992699C53.6781 2.10305 53.9241 3.17344 54.3126 4.33126C54.606 5.20359 54.606 5.15605 54.265 5.05289C53.4562 4.83092 49.8322 4.20444 47.2074 3.83967C46.7871 3.78412 46.4302 3.72865 46.4302 3.72075C46.3985 3.68905 48.3254 2.68185 49.1739 2.28545C50.2604 1.78575 53.242 0.540754 53.4639 0.501151ZM45.8195 4.05374L46.1289 4.15672C47.8099 4.72776 52.0365 5.53665 54.368 5.72695C54.6297 5.75076 54.8518 5.7746 54.8596 5.7746C54.8675 5.7825 54.6456 5.90145 54.36 6.03621C53.2341 6.59925 51.997 7.28918 51.1405 7.82051C50.8868 7.97903 50.6568 8.106 50.6251 8.106C50.5934 8.106 50.4269 8.07426 50.2525 8.05045L49.9353 8.0028L49.1424 7.22562C47.7467 5.86968 46.6523 4.82295 46.232 4.42637L45.8195 4.05374ZM45.5024 4.29952L46.6205 5.69525C47.2311 6.46446 47.8496 7.21776 47.9845 7.38422C48.1192 7.55086 48.2303 7.68572 48.2224 7.69362C48.1907 7.71739 46.6048 7.40806 45.7641 7.21783C44.8997 7.01952 44.5429 6.92437 44.0116 6.75792L43.5754 6.61512V6.50402C43.5833 5.97269 44.2574 5.17975 45.3993 4.37097L45.5024 4.29952ZM55.0025 6.20274C55.0342 6.20274 55.0738 6.27408 55.1689 6.48819C55.4385 7.0829 56.2793 8.68484 56.4853 8.99405C56.5489 9.09725 56.6597 9.10515 55.5417 8.92275C52.8535 8.48649 51.9891 8.34391 51.9891 8.32804C51.9891 8.32014 52.0684 8.26459 52.1715 8.20905C53.0042 7.7492 53.8447 7.16232 54.5902 6.53584C54.7726 6.38514 54.9391 6.24241 54.9707 6.21857C54.9786 6.20274 54.9946 6.19484 55.0025 6.20274Z" fill="url(#paint1_linear_211_2)"/>
<path d="M42.2431 5.56055C42.2431 5.56055 42.0687 5.83821 42.2352 6.25059C42.3384 6.50426 42.6397 6.81348 42.9806 7.13074C42.9806 7.13074 46.5094 10.5723 46.9377 11.064C48.8884 13.3161 49.7369 15.5365 49.8163 18.5975C49.8638 20.5641 49.491 22.2929 48.5633 24.2992C46.9138 27.8994 43.4325 31.8724 38.064 36.2814L38.8492 36.0197C39.3566 35.639 40.0466 35.2347 41.6642 34.3465C45.3992 32.3005 49.6021 30.4211 54.7566 28.4862C62.1789 25.6948 74.3833 22.4275 81.3298 21.3651L82.0515 21.254L81.9404 21.0795C81.3062 20.0961 80.8699 19.4856 80.3465 18.8354C78.824 16.948 76.9764 15.4176 74.7163 14.1487C71.6077 12.4122 67.5871 11.0561 62.4962 10.049C61.5367 9.85862 59.4273 9.49388 57.7145 9.2322C54.0825 8.66931 51.7352 8.28066 49.1501 7.83658C48.2224 7.67791 46.8345 7.44007 45.9146 7.24187C45.4388 7.13868 44.527 6.92461 43.8133 6.6788C43.2423 6.45665 42.4175 6.23461 42.2431 5.56055ZM44.2891 7.54312C44.297 7.5353 44.4238 7.58273 44.5905 7.63827C44.8918 7.74125 45.2803 7.86024 45.7404 7.98721C46.0884 8.08294 46.4373 8.17545 46.7871 8.26472C47.2629 8.3836 47.6593 8.49466 47.6672 8.49466C47.7228 8.55021 48.5238 11.1114 48.7934 12.0948C48.8963 12.4676 48.9758 12.7847 48.9679 12.7847C48.9597 12.7927 48.8726 12.6578 48.7696 12.4755C47.8417 10.8419 46.3747 9.18452 44.6776 7.85223C44.4557 7.69378 44.2891 7.55102 44.2891 7.54312ZM48.1907 8.62159C48.2303 8.62159 48.4048 8.64539 48.6188 8.69293C49.9669 8.99425 52.3856 9.45421 53.9319 9.71593C54.1936 9.75553 54.3998 9.80321 54.3998 9.81897C54.3998 9.83492 54.3046 9.89032 54.1856 9.95384C53.924 10.0886 52.8693 10.715 52.5204 10.953C51.6401 11.5398 50.8472 12.1741 50.2762 12.7451C50.0463 12.9751 49.8479 13.1654 49.8479 13.1654C49.8479 13.1654 49.8005 13.0306 49.7607 12.864C49.4754 11.7617 48.8805 10.1281 48.3413 8.97835C48.254 8.79602 48.1826 8.62945 48.1826 8.61365C48.1826 8.62949 48.1826 8.62159 48.1907 8.62159ZM55.058 9.93003C55.1055 9.94583 55.1849 10.2155 55.3434 10.8102C55.6369 11.9601 55.7717 13.2447 55.7241 14.4422C55.7082 14.7752 55.6924 15.0845 55.6764 15.1242L55.6527 15.2034L55.2404 15.0687C54.3918 14.799 53.0121 14.3945 51.8306 14.0615C51.1564 13.8791 50.6094 13.7126 50.6094 13.6968C50.6094 13.6491 51.5927 12.6658 52.013 12.2932C52.8137 11.5873 54.9865 9.90619 55.058 9.93003ZM55.6051 10.0092C55.629 9.98558 58.8882 10.5485 60.3711 10.834C61.4734 11.0481 63.0752 11.3812 63.1703 11.4209C63.2179 11.4367 63.0513 11.5318 62.52 11.7697C60.4266 12.7134 58.8722 13.5618 57.326 14.5928C56.9216 14.8624 56.5806 15.0845 56.5727 15.0845C56.5648 15.0845 56.5568 14.8545 56.5568 14.577C56.5568 13.0703 56.2555 11.5477 55.7002 10.2631C55.6448 10.1362 55.5972 10.0173 55.6051 10.0092ZM64.0347 11.6746C64.0585 11.6984 63.9553 12.3408 63.8602 12.7213C63.5747 13.9029 62.8056 15.6556 61.862 17.3049C61.6953 17.5983 61.5447 17.8362 61.5287 17.8441C61.513 17.852 61.2989 17.733 61.053 17.5903C60.1332 17.0511 59.0865 16.5436 57.9445 16.0677C57.6274 15.933 57.3498 15.8219 57.3418 15.8062C57.2862 15.7585 59.8397 14.0694 61.1878 13.2606C62.2584 12.6104 64.0029 11.6428 64.0347 11.6746ZM64.6373 11.7697C64.7087 11.7697 66.152 12.1663 66.9052 12.3883C68.7688 12.9435 70.9099 13.7285 72.3056 14.3629L72.8844 14.6246L72.4801 14.7197C69.0703 15.5047 66.152 16.4089 63.3368 17.5508C63.1068 17.6459 62.9006 17.7252 62.8849 17.7252C62.869 17.7252 62.9483 17.5429 63.0514 17.3207C63.8999 15.5207 64.4471 13.6413 64.5818 12.0393C64.5898 11.8886 64.6135 11.7697 64.6373 11.7697ZM50.2683 15.0687C50.292 15.0448 51.3944 15.3066 51.9891 15.473C52.8931 15.7268 54.8121 16.3691 54.8121 16.4167C54.8121 16.4246 54.598 16.607 54.3444 16.8291C53.3055 17.6935 52.3063 18.6053 51.1088 19.7631C50.7519 20.1042 50.4507 20.3817 50.4349 20.3817C50.4189 20.3817 50.4111 20.3341 50.4189 20.2706C50.6013 18.9384 50.5618 17.2256 50.308 15.4889C50.2841 15.2668 50.2604 15.0766 50.2683 15.0687ZM73.4318 15.0925C73.4474 15.1083 72.9241 15.933 72.5911 16.4008C72.1154 17.0828 71.4174 17.9869 69.8393 19.9694C69.0068 21.0161 68.0709 22.1977 67.7618 22.5942C67.4445 22.9907 67.1829 23.3236 67.1748 23.3236C67.1669 23.3236 67.064 23.181 66.9529 23.0066C66.0647 21.6743 65.002 20.5086 63.7412 19.4618C63.5033 19.2635 63.2417 19.0494 63.1545 18.986C63.0672 18.9226 62.9958 18.8591 62.9958 18.8512C62.9958 18.8275 64.3438 18.2485 65.3669 17.8362C67.1591 17.1066 69.6013 16.2343 71.4333 15.6713C72.3928 15.37 73.4158 15.0766 73.4318 15.0925ZM74.0423 15.251C74.0739 15.2431 74.2643 15.3383 74.4943 15.473C76.4213 16.5752 78.3085 17.9948 79.7995 19.4539C80.2197 19.8663 81.2586 20.9448 81.2426 20.9527C81.2426 20.9527 80.8779 20.9844 80.4497 21.0161C77.1112 21.2699 72.837 21.9756 68.7292 22.9668C68.4517 23.0302 68.206 23.0857 68.19 23.0857C68.1743 23.0857 68.4835 22.7765 68.8721 22.4038C71.2828 20.0803 72.3851 18.6133 73.6855 15.9964C73.8678 15.6079 74.0265 15.2748 74.0423 15.251C74.0344 15.251 74.0344 15.251 74.0423 15.251ZM56.3822 17.0591C56.4933 17.0828 57.5242 17.5667 58.3013 17.9552C59.015 18.3119 60.0856 18.883 60.1411 18.9305C60.149 18.9384 59.7683 19.1366 59.3006 19.3666C57.8097 20.1121 56.533 20.8177 55.2007 21.6266C54.8201 21.8566 54.5029 22.0471 54.495 22.0471C54.4633 22.0471 54.4712 22.0152 54.6853 21.6266C55.399 20.3262 55.9699 18.7719 56.2951 17.2573C56.3267 17.1383 56.3585 17.0591 56.3822 17.0591ZM55.3513 17.2494C55.3752 17.2732 55.1055 18.2485 54.9391 18.7798C54.6138 19.787 54.0667 21.0478 53.5355 21.9994C53.4084 22.2213 53.2182 22.5465 53.1151 22.7289L52.9169 23.0461L52.4728 22.618C51.9574 22.1183 51.537 21.8091 50.9979 21.5314C50.7837 21.4205 50.6172 21.3253 50.6172 21.3095C50.6172 21.2461 51.9732 20.0169 53.0121 19.1288C53.7574 18.4864 55.3276 17.2256 55.3513 17.2494ZM61.6558 19.8425L62.0444 20.0962C62.9324 20.6752 63.9791 21.4443 64.7802 22.1183C65.232 22.491 66.1043 23.2761 66.2789 23.4664L66.3739 23.5696L65.7318 23.752C62.0998 24.759 59.2926 25.6551 56.0175 26.8605C55.6527 26.9953 55.3434 27.1063 55.3196 27.1063C55.2721 27.1063 55.2324 27.1459 56.0493 26.3925C58.1428 24.4657 59.9983 22.3403 61.3782 20.2706L61.6558 19.8425ZM59.9984 20.2549C60.0142 20.2706 58.9278 21.8011 58.2775 22.6655C57.5004 23.6964 56.1205 25.4251 55.1689 26.5511C54.7726 27.019 54.4316 27.4076 54.4157 27.4155C54.3918 27.4234 54.3839 27.3045 54.3839 27.1221C54.3839 26.1625 54.1382 25.1395 53.7099 24.2673C53.5275 23.9026 53.4957 23.8153 53.5355 23.7757C53.6861 23.6408 55.9937 22.3245 57.4528 21.5395C58.4361 21.0161 59.9744 20.239 59.9984 20.2549ZM49.9748 22.7131C49.9987 22.7131 50.1811 22.8082 50.3873 22.9193C50.8948 23.1968 51.3468 23.5061 51.7512 23.8392C51.767 23.855 51.5609 24.0216 51.2913 24.2197C50.5379 24.759 49.396 25.6234 48.73 26.1547C48.032 26.7099 48.0084 26.7257 48.0876 26.6068C48.611 25.8058 48.8726 25.3538 49.1502 24.775C49.396 24.2596 49.6418 23.6489 49.8163 23.1176C49.8797 22.8876 49.959 22.7131 49.9748 22.7131ZM52.6473 24.8066C52.6869 24.7988 52.7346 24.87 52.9486 25.1873C53.4006 25.8612 53.7495 26.7654 53.8369 27.4949L53.8526 27.6536L52.7663 28.0739C50.8233 28.8271 49.0313 29.5726 47.8178 30.1276C47.477 30.2863 46.8822 30.5717 46.4937 30.7621C46.1051 30.9603 45.7879 31.111 45.7879 31.1031C45.7879 31.0952 46.0337 30.9128 46.335 30.6907C48.7062 28.9699 50.76 27.0825 52.2984 25.1952C52.4649 24.9969 52.6157 24.8145 52.6314 24.8066L52.6473 24.8066ZM51.4182 25.108C51.4499 25.1397 50.5459 26.1626 49.9274 26.7891C48.3969 28.3514 46.8823 29.5726 45.0028 30.7621C44.7649 30.9128 44.5509 31.0475 44.527 31.0635C44.4715 31.0952 44.5428 31.0158 45.3676 30.1197C45.891 29.5567 46.2874 29.0809 46.7395 28.4942C47.0408 28.1057 47.0963 28.0501 47.5325 27.7407C48.6983 26.9001 51.3865 25.0762 51.4182 25.108Z" fill="url(#paint2_radial_211_2)"/>
<path d="M17.0788 57.9433C16.9326 57.9433 16.7862 57.9572 16.6412 57.9572C13.6865 58.1147 11.6937 59.415 10.5286 61.9543C9.53205 64.2509 9.64085 67.2529 10.5398 69.5636C11.5851 71.8214 13.2741 73.0129 16.0935 73.463C16.69 73.5607 17.09 73.8882 18.2453 75.2372L19.6669 76.9027H22.2452L20.5308 75.1744C19.5831 74.2268 18.8166 73.4016 18.8166 73.3291C18.8166 73.2567 19.1792 73.0978 19.618 72.9641C21.0646 72.5263 22.266 71.4087 23.1063 69.6959C23.7865 68.3204 23.8841 67.8952 23.9816 66.1839C24.2367 61.0901 21.551 57.9054 17.0787 57.9418L17.0788 57.9433ZM19.3393 71.264C18.085 71.8715 16.2637 71.9928 15.0748 71.5566C13.8455 71.1051 12.6554 69.8285 12.1201 68.3833C11.525 66.8029 11.61 63.8874 12.2901 62.5744C13.3842 60.4839 14.8309 59.5223 16.945 59.5223C20.0808 59.5223 21.8646 61.4429 22.0974 65.0524C22.2814 68.0656 21.2723 70.3261 19.3407 71.2627L19.3393 71.264ZM63.8782 62.2943C62.7967 62.2943 61.9688 62.732 61.4113 63.5945L60.9737 64.2775V62.5019H59.102V73.1496H60.9724V69.7462C60.9724 66.6342 61.0113 66.2704 61.4462 65.4188C62.0455 64.2509 63.0767 63.6685 64.0733 63.9473L64.7422 64.1424V62.2971H63.8782V62.2943ZM52.8821 62.1967C52.5155 62.1967 52.1266 62.2455 51.7394 62.3306C49.2348 62.9855 47.8231 65.3826 47.9095 67.8494C47.9095 69.9149 48.3108 70.9475 49.3074 72.0305C51.3492 73.7056 53.1957 73.8394 55.6875 72.9406C56.1127 72.7594 56.5753 72.5503 56.5753 72.5503V70.8752L55.6875 71.3351C53.6709 72.2131 52.1518 72.2131 50.935 71.1789C50.159 70.3887 49.8174 69.441 49.66 68.3597H57.2066V66.924C57.2066 63.9973 55.4451 62.1493 52.8806 62.1967H52.8821ZM49.83 66.8655C49.83 66.8655 50.1088 65.0399 51.1428 64.3235C51.6405 63.9722 52.2118 63.8023 52.7706 63.8023C53.3309 63.8023 53.8897 63.9834 54.351 64.3361C55.2989 65.0649 55.4577 66.8517 55.4577 66.8517H49.83V66.8655H49.83ZM4.70718 64.9451C2.67807 63.7158 1.77775 62.8294 1.88784 61.7842C2.20275 58.8923 5.7762 59.2923 7.75512 60.3864L7.7692 58.4409C7.7692 58.4409 6.67511 57.9671 5.10718 57.9419C2.70172 57.9057 1.14639 58.6944 0.417596 60.3C-0.65284 62.6692 0.294974 64.4558 3.72068 66.4489C5.64388 67.5679 6.49394 68.5394 6.49394 69.5985C6.49394 71.7866 3.85577 72.5503 1.13398 71.1775C0.57383 70.8988 0.0999231 70.666 0.0748589 70.666C-0.0227632 71.2863 0.0275581 72.7705 0.0275581 72.7705C0.0275581 72.7705 0.863805 73.1217 2.11798 73.364C5.22852 73.9842 8.05917 72.5251 8.32672 70.1559C8.55949 67.9316 7.75519 66.7651 4.70731 64.9435L4.70718 64.9451ZM80.4432 62.1717C80.0781 62.1717 79.6906 62.2218 79.2864 62.3068C76.7849 62.9619 75.3758 65.359 75.4719 67.8259C75.4719 69.8885 75.872 70.9114 76.8684 71.9928C78.9102 73.6695 80.7568 73.8046 83.2612 72.9044C83.6849 72.7233 84.1462 72.5171 84.1462 72.5171V70.8392L83.2599 71.3017C81.2391 72.177 79.7199 72.177 78.5075 71.1429C77.727 70.3541 77.3884 69.4175 77.2308 68.3234H84.765V66.8879C84.765 63.9753 83.0033 62.1258 80.439 62.1746L80.4432 62.1717ZM77.3911 66.8405C77.3911 66.8405 77.6726 65.0175 78.7053 64.2872C79.2015 63.9347 79.7728 63.7646 80.3317 63.7646C80.8891 63.7646 81.4508 63.9457 81.9123 64.2997C82.86 65.0286 83.0189 66.8279 83.0189 66.8279H77.3926L77.3911 66.8405ZM43.0846 64.9688C41.0555 63.7424 40.1579 62.8531 40.2666 61.8078C40.5815 58.9145 44.155 59.316 46.134 60.4101L46.148 58.4646C46.148 58.4646 45.0539 57.9907 43.486 57.9683C41.0805 57.9321 39.5252 58.7209 38.795 60.3264C37.7261 62.6955 38.6863 64.4823 42.1007 66.4753C44.0213 67.5931 44.8714 68.5519 44.8714 69.611C44.8714 71.7991 42.2345 72.5754 39.5127 71.19C38.9552 70.9113 38.4815 70.6813 38.4536 70.6813C38.3559 71.3014 38.4063 72.7858 38.4063 72.7858C38.4063 72.7858 39.2326 73.1244 40.4827 73.3794C43.5962 74.001 46.4281 72.5431 46.6944 70.1739C46.9257 67.9608 46.123 66.7943 43.0847 64.9714V64.9688H43.0846ZM91.4407 62.2692C90.3592 62.2692 89.5217 62.7081 88.9739 63.5709L88.5362 64.251V62.4783H86.6645V73.1231H88.5348V69.7199C88.5348 66.6092 88.5724 66.244 89.0088 65.3939C89.608 64.2274 90.6392 63.6435 91.6357 63.9236L92.3046 64.1186V62.2693L91.4407 62.2692ZM28.2003 64.9074V58.1257H26.3133V73.1468H34.2489V71.3728H28.2004V64.9074H28.2003ZM71.8388 67.0216L70.2834 71.0688L68.7879 66.9993L67.2688 62.4894H65.3373C66.5889 66.0378 67.9503 69.6473 69.3231 73.1468C69.9183 73.1607 70.5147 73.1468 71.1097 73.1468L73.2101 67.8732L75.3494 62.4908H73.5028C73.5028 62.4908 72.6874 64.6287 71.8374 67.023L71.8388 67.0216ZM32.5485 54.0326C32.8523 54.0326 33.1059 53.9351 33.315 53.7261C33.5212 53.5197 33.6299 53.2772 33.6299 52.9734C33.6299 52.6696 33.5212 52.4159 33.315 52.2208C33.1059 52.0257 32.8648 51.9281 32.5624 51.9281C32.2559 51.9281 32.0022 52.0257 31.7959 52.2319C31.5869 52.4383 31.4921 52.6919 31.4921 52.9846C31.4921 53.2912 31.5897 53.5448 31.7959 53.7372C31.991 53.9322 32.2447 54.0299 32.5485 54.0299V54.0326ZM31.8796 52.3045C32.0607 52.1234 32.2809 52.0396 32.5624 52.0396C32.8273 52.0396 33.0475 52.1234 33.2315 52.3045C33.4127 52.4856 33.5102 52.7058 33.5102 52.9734C33.5102 53.241 33.4127 53.4724 33.2315 53.6535C33.0476 53.8346 32.8273 53.9211 32.5624 53.9211C32.2935 53.9211 32.0746 53.8374 31.8935 53.6535C31.7124 53.4724 31.6148 53.241 31.6148 52.9734C31.6148 52.7058 31.6984 52.4857 31.8796 52.3045ZM32.3297 53.0711H32.4523C32.5388 53.0711 32.6237 53.1546 32.6962 53.3135L32.8426 53.6423H33.0725L32.8914 53.2771C32.8176 53.1309 32.7451 53.0459 32.6601 53.022C32.7674 52.997 32.8523 52.9608 32.9137 52.8882C32.9749 52.8256 32.9973 52.7405 32.9973 52.6443C32.9973 52.5329 32.9624 52.4493 32.8887 52.388C32.805 52.3183 32.6712 52.2807 32.4983 52.2807H32.111V53.6423H32.3061V53.0709L32.3297 53.0711ZM32.3297 52.4383H32.4998C32.6224 52.4383 32.7088 52.4633 32.7562 52.4995C32.8022 52.5358 32.8147 52.5833 32.8147 52.6696C32.8147 52.827 32.7171 52.901 32.536 52.901H32.327V52.4383H32.3297ZM1.15886 52.9497C1.15886 52.4759 1.14497 52.1234 1.13379 51.9157H1.14497C1.19369 52.1608 1.25365 52.3435 1.30243 52.4647L3.11412 56.5119H3.41798L5.22968 52.4285C5.27858 52.3171 5.32736 52.1498 5.38726 51.917H5.40114C5.36496 52.3212 5.35243 52.6724 5.35243 52.9525V56.5245H5.97248V51.2146H5.19484L3.52948 54.9078C3.46811 55.0541 3.38308 55.273 3.27441 55.5629H3.24921C3.21303 55.4193 3.12801 55.2005 3.0068 54.9329L1.37891 51.202H0.552558V56.5118H1.14902V52.9524L1.15886 52.9497ZM7.33141 52.9596H7.86669V56.2667H7.33141V52.9596ZM7.59902 51.747C7.71059 51.747 7.80532 51.7093 7.87775 51.6356C7.95165 51.563 8.0005 51.4683 8.0005 51.3569C8.0005 51.2481 7.96418 51.1505 7.87922 51.0781C7.80397 51.0042 7.70776 50.9665 7.59767 50.9665C7.48906 50.9665 7.3915 51.0042 7.31888 51.0781C7.24523 51.1505 7.19632 51.2481 7.19632 51.3569C7.19632 51.4781 7.23398 51.563 7.31888 51.6356C7.40268 51.7093 7.48899 51.747 7.59767 51.747H7.59902ZM11.6826 56.3392V55.7566C11.3898 55.9754 11.0749 56.0842 10.7488 56.0842C10.3587 56.0842 10.0421 55.9505 9.81078 55.6941C9.58089 55.4405 9.45827 55.0877 9.45827 54.6488C9.45827 54.1889 9.58089 53.8236 9.83449 53.5448C10.0784 53.2773 10.3948 53.1435 10.7823 53.1435C11.0986 53.1435 11.4023 53.2412 11.6826 53.4363V52.8162C11.4276 52.6824 11.1364 52.621 10.8074 52.621C10.1997 52.621 9.72594 52.8162 9.37196 53.1926C9.02068 53.5688 8.83951 54.0803 8.83951 54.6977C8.83951 55.2468 8.99696 55.7081 9.3246 56.0608C9.66598 56.423 10.1024 56.607 10.6374 56.607C11.0512 56.5956 11.3898 56.5092 11.6826 56.3392ZM13.2141 54.5762C13.2141 54.1399 13.3117 53.7874 13.4928 53.5448C13.663 53.3261 13.8691 53.216 14.113 53.216C14.3193 53.216 14.4656 53.2536 14.5729 53.3386V52.7058C14.4893 52.6696 14.368 52.6571 14.2106 52.6571C13.9918 52.6571 13.7968 52.7308 13.6253 52.8662C13.4441 53.0095 13.2992 53.2285 13.2142 53.5072H13.2003V52.7309H12.5941V56.5217H13.2016V54.5762H13.2141ZM16.7025 56.597C17.2739 56.597 17.7338 56.413 18.0752 56.0479C18.4152 55.6854 18.5853 55.1977 18.5853 54.5899C18.5853 53.97 18.4293 53.4961 18.1115 53.1433C17.7966 52.7909 17.3588 52.6207 16.7874 52.6207C16.2159 52.6207 15.756 52.7908 15.4146 53.1196C15.0495 53.4822 14.8572 53.9936 14.8572 54.65C14.8572 55.2214 15.0133 55.6953 15.3423 56.0479C15.6822 56.413 16.1324 56.5955 16.7025 56.5955V56.597ZM15.8384 53.5086C16.0698 53.2647 16.3737 53.1434 16.7498 53.1434C17.1402 53.1434 17.4328 53.2647 17.6502 53.5086C17.869 53.7637 17.9778 54.1275 17.9778 54.6138C17.9778 55.0764 17.8802 55.4402 17.6739 55.6841C17.4677 55.9392 17.1639 56.0743 16.7624 56.0743C16.3722 56.0743 16.0698 55.939 15.8384 55.6841C15.6085 55.4277 15.4984 55.0764 15.4984 54.6138C15.4747 54.1539 15.596 53.7777 15.8384 53.5086ZM21.2459 56.2667C21.4772 56.0605 21.6 55.8068 21.6 55.4889C21.6 55.2102 21.5023 54.9789 21.3212 54.7963C21.1734 54.6501 20.945 54.5176 20.6146 54.3838C20.3218 54.2613 20.1407 54.1524 20.0431 54.0674C19.9456 53.9699 19.8856 53.8488 19.8856 53.6772C19.8856 53.5198 19.947 53.3985 20.0669 53.3009C20.1896 53.2035 20.3457 53.1561 20.5547 53.1561C20.8822 53.1561 21.1623 53.2425 21.4187 53.4251V52.8174C21.1734 52.6949 20.9072 52.6363 20.6034 52.6363C20.2132 52.6363 19.8843 52.7437 19.6417 52.9512C19.3866 53.1576 19.2655 53.4252 19.2655 53.74C19.2655 54.0187 19.349 54.2502 19.5078 54.4201C19.6416 54.5651 19.8703 54.7129 20.188 54.8452C20.4919 54.979 20.6981 55.1002 20.8081 55.1977C20.9168 55.2953 20.9656 55.4165 20.9656 55.5602C20.9656 55.914 20.7232 56.0968 20.2493 56.0968C19.8841 56.0968 19.5567 55.9768 19.2639 55.7344V56.3892C19.5287 56.5483 19.8465 56.6207 20.1977 56.6207C20.6479 56.597 21.0004 56.4869 21.2429 56.2681L21.2459 56.2667ZM24.1392 52.6208C23.5676 52.6208 23.1078 52.7909 22.7664 53.1198C22.404 53.4823 22.2089 53.9937 22.2089 54.6502C22.2089 55.2216 22.3665 55.6955 22.6939 56.048C23.0354 56.4131 23.4841 56.5957 24.0556 56.5957C24.6408 56.5957 25.0869 56.4118 25.4283 56.0465C25.7698 55.6842 25.9398 55.1964 25.9398 54.5887C25.9398 53.9685 25.7809 53.4948 25.4658 53.1421C25.1371 52.7895 24.6993 52.6194 24.1419 52.6194L24.1392 52.6208ZM25.3182 54.6139C25.3182 55.0765 25.2206 55.4403 25.0144 55.6842C24.8081 55.9392 24.5042 56.0743 24.1028 56.0743C23.7124 56.0743 23.4101 55.9391 23.1787 55.6842C22.9488 55.4277 22.8387 55.0765 22.8387 54.6139C22.8387 54.1261 22.9601 53.7498 23.204 53.4961C23.4338 53.2536 23.7378 53.1309 24.1154 53.1309C24.4916 53.1309 24.7941 53.2534 25.0128 53.4961C25.208 53.7636 25.3167 54.1274 25.3167 54.6139H25.3182ZM26.96 56.5106H27.5662V53.2286H28.454V52.7184H27.5662V52.1331C27.5662 51.6008 27.7723 51.3332 28.1989 51.3332C28.3424 51.3332 28.4888 51.3694 28.5975 51.4308V50.8831C28.4888 50.8344 28.3424 50.8232 28.1597 50.8232C27.8323 50.8232 27.5648 50.9209 27.3459 51.127C27.0908 51.3695 26.9557 51.6845 26.9557 52.1111V52.7327H26.3144V53.2427H26.9557V56.5124L26.96 56.5106ZM29.4504 55.4765C29.4504 56.218 29.778 56.5956 30.4469 56.5956C30.6894 56.5956 30.8719 56.5567 31.0183 56.4702V55.949C30.9068 56.0327 30.7744 56.0718 30.6281 56.0718C30.4219 56.0718 30.277 56.0228 30.1919 55.9127C30.1054 55.8041 30.0567 55.62 30.0567 55.3664V53.2272H31.0182V52.717H30.0567V51.5994C29.8477 51.6718 29.6428 51.7332 29.449 51.7944V52.7169H28.794V53.2271H29.449V55.4751L29.4504 55.4765ZM94.674 62.4642C94.4677 62.2692 94.2238 62.1716 93.9214 62.1716C93.6149 62.1716 93.3611 62.2692 93.1549 62.4782C92.9486 62.6831 92.8509 62.9381 92.8509 63.2309C92.8509 63.5347 92.9486 63.7884 93.1533 63.9834C93.3597 64.1785 93.6132 64.2762 93.9199 64.2762C94.2223 64.2762 94.4774 64.1785 94.6865 63.9723C94.8914 63.7632 95 63.5221 95 63.2198C94.9889 62.9131 94.8788 62.6594 94.6725 62.4644L94.674 62.4642ZM94.5765 63.8998C94.3952 64.0809 94.175 64.1646 93.9074 64.1646C93.6427 64.1646 93.4225 64.0809 93.2385 63.8998C93.0574 63.7158 92.9597 63.4859 92.9597 63.2169C92.9597 62.952 93.0434 62.732 93.2274 62.548C93.4085 62.3669 93.6274 62.2831 93.9074 62.2831C94.1723 62.2831 94.3926 62.3669 94.5765 62.548C94.7576 62.732 94.8551 62.952 94.8551 63.2169C94.8551 63.4985 94.7715 63.7158 94.5765 63.8998ZM94.0301 63.2796C94.1387 63.2545 94.2252 63.2058 94.2851 63.1459C94.3465 63.0831 94.3689 62.998 94.3689 62.9007C94.3689 62.7919 94.334 62.7055 94.2602 62.6456C94.1766 62.5759 94.0414 62.5382 93.8701 62.5382H93.4826V63.8984H93.6778V63.327H93.799C93.8827 63.327 93.9663 63.4105 94.0414 63.5694L94.1863 63.8969H94.4178L94.2367 63.5317C94.1739 63.3728 94.1014 63.3003 94.0277 63.2766L94.0301 63.2796ZM93.8963 63.157H93.6873V62.6972H93.8587C93.98 62.6972 94.065 62.7194 94.1138 62.7571C94.1625 62.7933 94.1737 62.8407 94.1737 62.9272C94.1737 63.0846 94.0761 63.1572 93.895 63.1572L93.8963 63.157ZM59.9899 52.561H60.1599V51.1993H60.6099V51.0293H59.5397V51.1993H59.99V52.561H59.9899ZM61.0212 51.538C61.0212 51.4055 61.0212 51.2968 61.0114 51.2356C61.0226 51.308 61.0476 51.3569 61.0588 51.3931L61.5815 52.561H61.6651L62.189 51.3819C62.2031 51.3457 62.2143 51.2982 62.2379 51.2356C62.2267 51.3569 62.2267 51.4542 62.2267 51.5283V52.5596H62.4079V51.0293H62.189L61.7153 52.0857C61.7041 52.1234 61.6663 52.1971 61.6427 52.2809H61.6288C61.619 52.232 61.594 52.1833 61.5591 52.0998L61.0853 51.0294H60.84V52.5624H61.0114V51.5395L61.0212 51.538Z" fill="#231F1F"/>
</g>
<defs>
<linearGradient id="paint0_linear_211_2" x1="42.081" y1="47.3021" x2="45.8747" y2="45.0605" gradientUnits="userSpaceOnUse">
<stop stop-color="#909CA9"/>
<stop offset="1" stop-color="#EDEDEE"/>
</linearGradient>
<linearGradient id="paint1_linear_211_2" x1="42.1679" y1="5.04133" x2="45.2204" y2="5.04133" gradientUnits="userSpaceOnUse">
<stop stop-color="#939FAB"/>
<stop offset="1" stop-color="#DCDEE1"/>
</linearGradient>
<radialGradient id="paint2_radial_211_2" cx="0" cy="0" r="1" gradientUnits="userSpaceOnUse" gradientTransform="translate(57.5708 19.0411) rotate(-171.457) scale(3.9355 7.87296)">
<stop stop-color="#EE352C"/>
<stop offset="1" stop-color="#A91D22"/>
</radialGradient>
<clipPath id="clip0_211_2">
<rect width="95" height="77" fill="white"/>
</clipPath>
</defs>
</svg>
