<svg width="46" height="46" viewBox="0 0 46 46" fill="none" xmlns="http://www.w3.org/2000/svg">
<path fill-rule="evenodd" clip-rule="evenodd" d="M1.99023 29.9681H3.35626V24.5875L5.46267 29.2799C5.71274 29.8426 6.04671 30.0408 6.71395 30.0408C7.38142 30.0408 7.71515 29.8426 7.96522 29.2799L10.0716 24.5875V29.9681H11.4271V24.5977C11.4271 24.0766 11.2184 23.8258 10.791 23.6903C9.7587 23.367 9.05991 23.6487 8.74721 24.3474L6.68263 28.9669L4.68069 24.3474C4.37827 23.6487 3.6692 23.367 2.63691 23.6903C2.19894 23.8258 1.99047 24.0763 1.99047 24.5977V29.9681H1.99023ZM12.5637 25.5882H13.9192V28.5498C13.9089 28.7164 13.9713 29.092 14.7222 29.1025C15.0975 29.1125 17.6522 29.1025 17.673 29.1025V25.5777H19.039C19.0493 25.5777 19.039 30.3846 19.039 30.4056C19.0493 31.5943 17.5688 31.8443 16.891 31.8654H12.595V30.9478C12.595 30.9478 16.8807 30.9584 16.891 30.9478C17.7669 30.8644 17.6627 30.4267 17.6627 30.2806V29.9258H14.7743C13.4291 29.9053 12.5739 29.321 12.5637 28.6432C12.5637 28.5808 12.595 25.6198 12.5637 25.5882ZM41.8543 22.1784C41.0205 22.1576 40.3841 22.2305 39.8314 22.4703C39.6752 22.5329 39.4352 22.5329 39.4041 22.7311C39.4876 22.8141 39.5081 22.9499 39.5708 23.0649C39.7063 23.2736 39.9255 23.5547 40.1235 23.7008C40.3322 23.8679 40.5512 24.0345 40.7804 24.1806C41.1976 24.4306 41.6564 24.5662 42.042 24.817C42.282 24.9626 42.5113 25.1507 42.7408 25.3173C42.8448 25.4008 42.9285 25.526 43.064 25.5779V25.5574C42.9911 25.4634 42.9701 25.3279 42.9074 25.2232L42.5947 24.9104C42.2925 24.5143 41.9064 24.1595 41.4996 23.8679C41.1763 23.6384 40.4465 23.3152 40.3109 22.9398C40.3004 22.9293 40.2899 22.9293 40.2899 22.9188C40.5194 22.8872 40.7907 22.8043 40.9992 22.7517C41.354 22.6582 41.6769 22.6788 42.0418 22.5851C42.2089 22.5327 42.3755 22.4911 42.5426 22.439V22.345C42.3549 22.1574 42.2299 21.8968 42.0214 21.7299C41.4897 21.2711 40.9055 20.8227 40.3112 20.4473C39.9774 20.2283 39.5708 20.0928 39.2165 19.9156C39.1015 19.8635 38.8928 19.8322 38.8098 19.728C38.6217 19.4985 38.5282 19.196 38.3821 18.9249C38.0762 18.3302 37.7911 17.725 37.5272 17.1104C37.3501 16.7038 37.2246 16.2971 37.0061 15.9216C35.9214 14.1489 34.7639 13.075 32.9601 12.0217C32.5745 11.8027 32.1157 11.709 31.6254 11.5942C31.3648 11.5732 31.1042 11.5629 30.8434 11.5419C30.6868 11.4792 30.5202 11.2813 30.3636 11.1873C29.7693 10.812 28.2364 9.98817 27.7982 11.0726C27.5166 11.7503 28.2153 12.4178 28.4654 12.7621C28.643 13.0018 28.8616 13.2732 28.9871 13.544C29.07 13.7212 29.0805 13.8986 29.1537 14.0862C29.3308 14.5555 29.4769 15.0664 29.6959 15.4939C29.8104 15.7129 29.9354 15.9424 30.0815 16.1405C30.1649 16.2553 30.3215 16.3074 30.3421 16.4951C30.196 16.7035 30.186 17.0165 30.1025 17.2771C29.7375 18.4554 29.873 19.9049 30.4152 20.7806C30.5823 21.0412 30.968 21.6147 31.5104 21.3959C31.9797 21.1978 31.8752 20.6137 32.0108 20.082C32.0423 19.9673 32.0213 19.8839 32.0837 19.8004V19.8212C32.2192 20.1131 32.3653 20.3947 32.5114 20.6761C32.8241 21.1872 33.3873 21.7294 33.8671 22.0837C34.1067 22.2714 34.3049 22.5949 34.6281 22.6989V22.6778H34.597C34.5344 22.5843 34.4404 22.5425 34.3675 22.4694C34.1798 22.2817 33.9713 22.0522 33.8148 21.8437C33.3875 21.2597 33.0017 20.6133 32.6472 19.9458C32.4801 19.6226 32.334 19.268 32.1989 18.9448C32.1463 18.8198 32.1463 18.6321 32.0318 18.559C31.8752 18.7987 31.6567 18.9969 31.531 19.2785C31.3433 19.727 31.3122 20.2795 31.2498 20.8428C31.2078 20.8636 31.2183 20.853 31.1972 20.8741C30.864 20.7906 30.749 20.4464 30.6239 20.1545C30.3218 19.4141 30.2589 18.2255 30.53 17.3703C30.6029 17.1513 30.9266 16.4631 30.791 16.2546C30.7279 16.0564 30.53 15.9314 30.4155 15.775C30.2694 15.5874 30.1339 15.3371 30.0299 15.1181C29.7798 14.534 29.6648 13.8876 29.3935 13.3038C29.2579 13.0222 29.0497 12.7406 28.8723 12.5008C28.6741 12.2192 28.4551 12.0212 28.299 11.6875C28.2469 11.5727 28.174 11.385 28.2469 11.2598C28.278 11.1763 28.3095 11.145 28.3925 11.1137C28.528 11.0095 28.9141 11.1555 29.0597 11.2074C29.4353 11.3743 29.7585 11.5204 30.0817 11.7393C30.2383 11.8436 30.3949 12.0415 30.5826 12.0939H30.7913C31.125 12.1668 31.5001 12.1147 31.8128 12.2086C32.3655 12.3753 32.8659 12.6361 33.3146 12.9282C34.6909 13.7936 35.8069 15.0241 36.5784 16.4944C36.7034 16.7342 36.7555 16.9531 36.86 17.2034C37.0792 17.7146 37.3604 18.2357 37.5793 18.7258C37.788 19.2264 38.007 19.727 38.3092 20.1335C38.4763 20.3524 39.1017 20.4672 39.3833 20.5817C39.5815 20.6651 39.9045 20.7589 40.0926 20.8738C40.4575 21.0823 40.8015 21.3431 41.1457 21.5829C41.3121 21.6988 41.8333 21.9594 41.8543 22.1784Z" fill="#00678C"/>
<path fill-rule="evenodd" clip-rule="evenodd" d="M31.2202 13.1172C31.0762 13.1172 30.9327 13.1348 30.793 13.1695V13.1903H30.8241C30.9075 13.3572 31.0536 13.472 31.1578 13.6178C31.2307 13.7847 31.3144 13.9515 31.3873 14.1184L31.4184 14.0871C31.5644 13.9934 31.6271 13.8265 31.6271 13.5659C31.575 13.5033 31.5644 13.4304 31.5126 13.3572C31.4394 13.2527 31.3144 13.2006 31.2202 13.1172Z" fill="#00678C"/>
<path fill-rule="evenodd" clip-rule="evenodd" d="M20.0918 29.9686H24.002C24.4607 29.9686 24.909 29.8746 25.2635 29.7075C25.8473 29.4369 26.1395 29.0716 26.1395 28.592V27.5911C26.1395 27.2055 25.8057 26.8301 25.17 26.5901C24.8258 26.4545 24.4086 26.3919 24.002 26.3919H22.3546C21.8018 26.3919 21.5413 26.2248 21.4786 25.8602C21.4681 25.8186 21.4681 25.7768 21.4681 25.7352V25.1198C21.4681 25.0782 21.4681 25.0469 21.4786 25.0053C21.5413 24.7237 21.6871 24.6403 22.1669 24.5987C22.2085 24.5987 22.2606 24.5882 22.3024 24.5882H26.1918V23.6811H22.3651C21.8124 23.6811 21.5307 23.7227 21.2702 23.7956C20.4568 24.0562 20.1023 24.4526 20.1023 25.1514V25.9439C20.1023 26.5592 20.8009 27.0804 21.9584 27.2055C22.094 27.2055 22.219 27.216 22.3546 27.216H23.7624C23.8145 27.216 23.8664 27.216 23.908 27.2265C24.3462 27.2681 24.5234 27.341 24.6589 27.4971C24.7318 27.5806 24.7634 27.6537 24.7634 27.7477V28.5402C24.7634 28.6341 24.7008 28.7594 24.5652 28.8634C24.4502 28.9678 24.252 29.0305 23.9915 29.051C23.9393 29.051 23.898 29.0616 23.8454 29.0616H20.0918V29.9686ZM34.6275 28.3831C34.6275 29.3217 35.3158 29.8429 36.7236 29.9473C36.8487 29.9578 36.9842 29.9684 37.1093 29.9684H40.6546V29.0609H37.0882C36.2852 29.0609 35.983 28.8627 35.983 28.3831V23.6807H34.6273V28.3831H34.6275ZM27.0051 28.4352V25.203C27.0051 24.3792 27.5784 23.8788 28.7254 23.7223C28.8404 23.7012 28.976 23.7012 29.0905 23.7012H31.6763C31.8013 23.7012 31.9163 23.7012 32.0518 23.7223C33.1883 23.8788 33.7721 24.3792 33.7721 25.203V28.4352C33.7721 29.1029 33.5221 29.4572 32.9588 29.6867L34.3041 30.8964H32.7193L31.6347 29.9265L30.5395 29.9892H29.0903C28.8402 29.9892 28.5794 29.9581 28.2872 29.8746C27.4223 29.6449 27.0051 29.1861 27.0051 28.4352ZM28.4754 28.3523C28.4754 28.4044 28.4859 28.4457 28.4964 28.4983C28.5798 28.8734 28.9342 29.0821 29.4658 29.0821H30.7071L29.5705 28.0601H31.1553L32.1458 28.9466C32.3234 28.8526 32.4484 28.7066 32.49 28.5189C32.5005 28.4668 32.5005 28.4254 32.5005 28.3833V25.2762C32.5005 25.2446 32.5005 25.2033 32.49 25.1612C32.4066 24.8069 32.0523 24.609 31.5307 24.609H29.4661C28.8612 24.609 28.4756 24.8695 28.4756 25.2762L28.4754 28.3523ZM41.2805 29.9686H41.4787V29.2177H41.7498V29.0611H41.0094V29.2177H41.2805V29.9686ZM42.8029 29.9686H42.98V29.0611H42.7089L42.4694 29.687L42.2298 29.0611H41.9482V29.9686H42.1359V29.2803L42.3965 29.9686H42.532L42.7926 29.2803H42.8031V29.9686H42.8029Z" fill="#CE8B2C"/>
<path fill-rule="evenodd" clip-rule="evenodd" d="M2.29285 21.4178V17.9974H3.35622C3.60652 17.9974 3.78391 18.0185 3.90894 18.0601C4.06529 18.1227 4.19032 18.2269 4.29456 18.3938C4.38851 18.5501 4.44063 18.7483 4.44063 18.9778C4.44063 19.2908 4.35743 19.5408 4.20084 19.7287C4.04449 19.9267 3.77316 20.0206 3.38754 20.0206H2.66795V21.418L2.29285 21.4178ZM2.66818 19.6243H3.39805C3.62755 19.6243 3.79419 19.5722 3.89866 19.4679C4.00312 19.3637 4.05501 19.2071 4.05501 18.9986C4.05501 18.8631 4.02369 18.7483 3.97157 18.6544C3.91946 18.5502 3.85682 18.4878 3.78391 18.4564C3.71099 18.4146 3.5752 18.4041 3.38777 18.4041H2.66818V19.6243ZM4.80591 19.7493C4.80591 19.1758 4.93118 18.7273 5.19176 18.4146C5.45235 18.1017 5.76528 17.9453 6.1509 17.9453C6.40121 17.9453 6.63071 18.0079 6.82866 18.1538C7.03736 18.2893 7.19371 18.4978 7.31874 18.7586C7.43349 19.0297 7.49589 19.3427 7.49589 19.7075C7.49589 20.2186 7.38114 20.6358 7.15164 20.9485C6.89106 21.303 6.55732 21.4802 6.15067 21.4802C5.73373 21.4802 5.4 21.2925 5.1497 20.9379C4.92066 20.615 4.80591 20.2186 4.80591 19.7493ZM5.19176 19.7598C5.19176 20.1768 5.28548 20.5105 5.47338 20.74C5.65053 20.9693 5.88004 21.0945 6.15114 21.0945C6.42224 21.0945 6.65174 20.9693 6.82889 20.74C7.01656 20.5002 7.11051 20.156 7.11051 19.6974C7.11051 19.4053 7.05839 19.1447 6.96444 18.9152C6.89153 18.7381 6.78706 18.592 6.64122 18.4877C6.49842 18.3851 6.32676 18.3304 6.1509 18.3314C5.86928 18.3314 5.64002 18.4461 5.46287 18.6754C5.2752 18.9152 5.19176 19.2697 5.19176 19.7598ZM8.44522 21.4178L7.70483 17.9974H8.08017L8.50785 20.2394C8.55997 20.4689 8.59105 20.7087 8.63289 20.9382L8.75792 20.3125L9.30012 17.9977H9.73809L10.1342 19.7287C10.2321 20.1275 10.3086 20.5312 10.3635 20.9382C10.3948 20.7192 10.4364 20.4689 10.499 20.198L10.937 17.9977H11.3229L10.5514 21.418H10.1863L9.59202 18.811L9.49807 18.4148C9.47727 18.5609 9.44596 18.6965 9.42516 18.811L8.82055 21.4178H8.44522ZM11.6671 21.4178V17.9974H13.6901V18.4043H12.0322V19.4471H13.5859V19.8538H12.0322V21.0216H13.7527V21.4178H11.6671ZM14.2636 21.4178V17.9974H15.5046C15.7654 17.9974 15.9634 18.0287 16.0781 18.0914C16.2034 18.154 16.3074 18.2688 16.3908 18.4146C16.4637 18.5607 16.5056 18.7378 16.5056 18.9257C16.5056 19.1863 16.4429 19.3948 16.3074 19.5616C16.1718 19.718 15.9737 19.8225 15.7131 19.8641C15.8173 19.9267 15.9007 19.9893 15.9529 20.0517C16.0676 20.1873 16.1616 20.3333 16.2448 20.4897L16.7351 21.4178H16.2658L15.8905 20.7087C15.7444 20.4273 15.6402 20.2394 15.5672 20.1457C15.4943 20.052 15.4212 19.9893 15.3483 19.9475C15.2856 19.9162 15.1919 19.8954 15.0666 19.8954H14.6392V21.4178H14.2636ZM14.639 19.5095H15.4315C15.6086 19.5095 15.7442 19.4887 15.8276 19.4469C15.9213 19.4051 15.9945 19.3321 16.0466 19.2487C16.0987 19.155 16.1195 19.0505 16.1195 18.9358C16.1195 18.7586 16.0779 18.6231 15.9734 18.5188C15.8692 18.4251 15.7231 18.3728 15.5252 18.3728H14.639V19.5095ZM17.0999 21.4178V17.9974H19.1229V18.4043H17.4752V19.4471H19.0184V19.8538H17.4752V21.0216H19.1958V21.4178H17.0999ZM19.6962 21.4178V17.9974H20.6658C20.9056 17.9974 21.083 18.0185 21.208 18.0601C21.3749 18.1122 21.5104 18.2164 21.6355 18.3625C21.7502 18.5086 21.8442 18.6857 21.9171 18.9047C21.9797 19.1237 22.0108 19.3845 22.0108 19.6869C22.0108 20.0728 21.9587 20.4065 21.844 20.6774C21.7292 20.9485 21.5834 21.1361 21.406 21.2509C21.2288 21.3656 20.9888 21.4178 20.7074 21.4178H19.6962ZM20.0717 21.0216H20.6661C20.9058 21.0216 21.0832 20.9798 21.2083 20.8966C21.3335 20.8237 21.4272 20.6984 21.5002 20.5212C21.5836 20.292 21.6254 20.0104 21.6254 19.6871C21.6254 19.3429 21.5838 19.0615 21.4899 18.8633C21.3959 18.6651 21.2707 18.5296 21.1248 18.467C21.0309 18.4253 20.8745 18.4043 20.6555 18.4043H20.0715L20.0717 21.0216ZM23.7106 21.4178V17.9974H24.7641C24.9829 17.9974 25.1498 18.0287 25.275 18.1017C25.4001 18.1643 25.5045 18.2685 25.5777 18.4041C25.6606 18.5502 25.7027 18.6962 25.7027 18.8734C25.7027 19.0297 25.6606 19.1655 25.5982 19.2905C25.5253 19.4156 25.4316 19.5198 25.3066 19.5927C25.4619 19.6537 25.596 19.7588 25.6922 19.8951C25.7857 20.0412 25.8277 20.2184 25.8277 20.4271C25.8277 20.6358 25.7857 20.8127 25.7027 20.9693C25.6193 21.1256 25.5045 21.2404 25.3585 21.3135C25.2229 21.3864 25.0247 21.4178 24.7747 21.4178H23.7106ZM24.0864 19.4366H24.6912C24.8473 19.4366 24.9623 19.4263 25.025 19.4053C25.129 19.374 25.2021 19.3116 25.254 19.2387C25.3066 19.1657 25.3269 19.0613 25.3269 18.926C25.3269 18.8007 25.3063 18.6965 25.2643 18.613C25.2122 18.5296 25.1498 18.4775 25.0661 18.4462C24.9932 18.4148 24.8469 18.4043 24.6489 18.4043H24.0861V19.4366H24.0864ZM24.0864 21.0216H24.7847C24.9308 21.0216 25.0453 21.0008 25.1184 20.9798C25.2202 20.9403 25.3051 20.8666 25.3585 20.7713C25.4211 20.6879 25.4414 20.5628 25.4414 20.4273C25.4414 20.2917 25.4209 20.1875 25.3687 20.0936C25.3162 20.0101 25.2437 19.9372 25.1495 19.8954C25.0661 19.8538 24.92 19.8327 24.7323 19.8327H24.0859V21.0216H24.0864ZM27.1204 21.4178V19.9683L26.0467 17.9974H26.495L27.0472 19.0297C27.153 19.2201 27.2505 19.4149 27.3394 19.6138C27.4228 19.4261 27.5165 19.2279 27.642 19.0089L28.1842 17.9974H28.6114L27.4959 19.9683V21.4178H27.1204Z" fill="#00678C"/>
</svg>
