<svg width="37" height="38" viewBox="0 0 37 38" fill="none" xmlns="http://www.w3.org/2000/svg">
<path fill-rule="evenodd" clip-rule="evenodd" d="M7.61559 27.3318C7.60951 27.271 7.59736 27.1864 7.58521 27.0535C7.57306 26.9869 7.56698 26.9263 7.5609 26.8658L7.30055 26.8901H7.23394C6.56203 26.9202 5.78098 26.8658 5.03031 26.7389C4.28571 26.6118 3.56543 26.4119 3.0085 26.1577C1.86426 25.625 0.901851 24.8683 0.459909 24.2691C0.193481 23.894 0.0301191 23.5004 0.00581339 23.1008C-0.0486407 22.3197 0.278317 21.7205 1.03483 21.3573C1.4707 21.1453 2.07016 21.0909 2.83883 21.2484C3.82554 21.4543 4.44908 21.5873 4.84264 21.684C3.08095 18.7603 1.7855 15.6186 1.01684 12.8339C-0.0486406 8.98384 -0.0605595 5.63643 1.08952 4.16547C2.83298 1.94384 4.98801 0.829989 7.09465 0.327517C10.1698 -0.404925 13.2328 0.266986 14.5404 0.642322C14.9136 0.574254 15.2892 0.519764 15.6664 0.478959C16.2112 0.424505 16.7501 0.388047 17.2949 0.381971C18.3664 0.363741 19.3347 0.503265 20.2064 0.763382C20.8343 0.947125 21.4364 1.20948 21.9985 1.5442C25.2005 0.45442 36.9504 -2.66909 36.2967 10.3945C36.2182 11.9564 34.9955 18.2943 33.1431 22.689C32.5013 24.2085 31.775 25.528 30.9635 26.4239C29.8438 27.6709 28.5542 28.2218 27.0896 27.695C26.696 27.5557 26.3085 27.3379 25.9334 27.0292C25.8727 27.1018 25.8002 27.1804 25.7275 27.247C25.2856 27.6648 24.5714 27.9918 24.0086 28.1309C23.3367 28.3005 22.2165 28.5001 20.9695 28.2884C20.4812 28.2079 20.0052 28.0656 19.5529 27.8647C19.5712 28.0643 19.5831 28.2823 19.5773 28.5123C19.5649 28.839 19.559 29.1662 19.5471 29.3959C19.5165 30.1891 19.4744 30.976 19.3896 31.7386C19.2987 32.5377 19.1655 33.246 18.9596 33.8088C18.9294 33.8876 18.9053 33.96 18.8752 34.0448C18.3968 35.5219 17.5372 38.1492 13.4571 37.2775C11.8712 36.9386 10.4605 36.5088 9.32867 34.8864C8.34196 33.4882 7.71235 31.2422 7.61559 27.3318Z" fill="#6A778F"/>
<path fill-rule="evenodd" clip-rule="evenodd" d="M9.24987 24.565C9.3527 22.5797 8.37206 22.2225 7.688 22.0286C7.76068 21.9257 7.85767 21.8047 7.96634 21.6654C8.31737 21.2356 8.75955 20.6784 9.11642 19.813C9.17088 19.6798 9.33447 19.3893 9.54621 19.0079C10.4481 17.3916 12.2278 14.2014 11.8768 12.016C11.6286 10.4605 10.442 9.43122 7.48187 9.73995C7.48794 9.7098 7.5001 9.67942 7.51201 9.64904C7.6513 9.24963 7.8752 8.72285 8.20215 8.13578C9.49807 5.78117 12.3128 2.49429 17.3252 2.41553C23.3724 2.3127 24.4743 8.32976 24.6739 10.8601C24.3801 10.6786 24.0724 10.5208 23.7536 10.388C23.2455 10.1824 22.6703 10.0066 22.0952 9.9157C21.496 9.82502 20.8906 9.83717 20.3456 10.0064C19.4921 10.2728 18.8141 10.9085 18.5477 12.1191C17.6157 16.4474 18.451 18.3119 19.1051 19.7707C19.5835 20.824 19.3849 20.3746 19.6852 21.2195C19.7948 21.5273 19.8911 21.8171 19.9582 22.083C19.8866 22.0654 19.8138 22.0533 19.7403 22.0468C19.3468 22.0106 18.8868 22.1679 18.566 22.3978C18.221 22.646 17.9426 23.0335 17.7851 23.4633C17.6458 23.8629 17.6641 24.2444 17.6701 24.662C17.7124 26.605 17.7003 28.524 17.6278 30.0859C17.5552 31.6417 17.428 32.8039 17.2586 33.2398C17.077 33.6936 16.7863 34.3656 16.2354 34.8318C15.7028 35.2857 14.8794 35.5582 13.5721 35.2796C12.4278 35.0314 11.6531 34.6806 11.1445 34.1477C10.6299 33.621 10.3455 32.8703 10.1639 31.8291C10.0368 31.0663 9.85517 29.7346 9.6855 28.4151C9.47984 26.8049 9.29825 25.1525 9.24987 24.565ZM23.4575 25.5157C21.466 25.1039 21.266 24.856 20.6242 24.0387C20.3944 23.7462 20.1478 23.4674 19.8857 23.2034C19.8234 23.1389 19.7392 23.1 19.6497 23.0943C19.5045 23.0821 19.2986 23.1609 19.1713 23.2518C19.0018 23.3729 18.8567 23.5788 18.7718 23.8087C18.6933 24.045 18.6627 24.3355 18.8144 24.5472C19.559 25.5826 20.4732 26.0182 21.3267 26.1636C22.1922 26.3148 23.0092 26.1636 23.5 26.0425C23.7419 25.9817 24.0205 25.8668 24.2021 25.7396C24.0569 25.6669 23.8143 25.5882 23.4575 25.5157ZM24.0326 21.7262C24.1946 21.5881 24.3483 21.4405 24.4928 21.2842C25.2491 20.4548 25.7576 19.3652 25.8726 18.1485C25.9169 17.703 25.9068 17.2537 25.8425 16.8106C25.5882 14.9886 25.6849 13.3479 25.7394 12.4944C25.7518 12.2705 25.7639 12.1009 25.7576 11.9679C25.7639 11.9256 25.9028 6.44724 22.7856 3.38402C25.6001 2.45783 34.6988 0.236202 34.2022 10.2366C34.1295 11.6954 32.9734 17.658 31.2178 21.8168C30.6674 23.1244 30.0555 24.2444 29.4079 24.9646C28.8692 25.5639 28.3184 25.8546 27.7857 25.6609C27.495 25.5578 27.1804 25.3157 26.8472 24.916C25.9423 23.8238 25.0037 22.76 24.0326 21.7262ZM12.9121 2.30055C10.0608 3.55977 8.269 5.8417 7.28836 7.63377C6.98686 8.16791 6.73166 8.72688 6.52553 9.30455C6.34394 9.81287 6.27733 10.2125 6.30772 10.388C6.30772 10.4063 6.31356 10.4245 6.31356 10.4425C6.28925 11.1871 6.38016 11.7985 6.48323 12.4402C6.55591 12.9366 6.63444 13.4512 6.65874 14.0565C6.67697 14.6317 6.60429 15.237 6.52553 15.8666C6.33179 17.4708 6.12612 19.1778 7.20352 20.9453C7.18529 20.9696 7.16706 20.9939 7.14907 21.0122C7.10676 21.0664 7.06423 21.1211 7.02193 21.1695C5.16348 18.2455 3.8075 15.0311 3.03276 12.2163C2.13696 8.97783 1.99767 6.33833 2.73618 5.38807C4.0134 3.75959 5.57504 2.86986 7.13107 2.41577C9.34055 1.77985 11.544 2.02197 12.9121 2.30055ZM24.7104 11.9618C24.7104 12.1191 24.698 12.2766 24.6921 12.4339C24.6379 13.3117 24.5346 15.0129 24.8071 16.9559C24.8614 17.3313 24.8679 17.7005 24.8314 18.0516C24.7462 18.9922 24.355 19.8789 23.7176 20.5758C23.1184 21.2356 22.3254 21.6834 21.4534 21.8047C21.2959 21.829 21.1325 21.8348 20.975 21.8409C20.896 21.5205 20.7855 21.1886 20.659 20.8413C20.4852 20.3629 20.4373 20.1687 20.061 19.3409C19.4676 18.0212 18.7113 16.3385 19.5767 12.3369C19.7401 11.5622 20.1519 11.1625 20.6544 11.0052C21.0355 10.884 21.4833 10.884 21.9435 10.9508C22.4277 11.0235 22.9181 11.1808 23.36 11.3563C24.1235 11.6713 24.7045 11.9375 24.7104 11.9618ZM21.6051 11.526C21.219 11.4432 20.6936 11.5143 20.3456 11.7015C20.1461 11.8165 20.0371 11.9679 20.0554 12.1313C20.0731 12.2584 20.2005 12.44 20.394 12.5732C20.5756 12.6943 20.824 12.7852 21.0902 12.7487H21.0965C21.3567 12.7125 21.5869 12.561 21.7502 12.3916C21.9082 12.2222 22.0068 12.0394 21.9982 11.8821C21.9895 11.7248 21.8746 11.5933 21.6051 11.526ZM7.36127 10.7996C9.75842 10.5028 10.6846 11.1567 10.848 12.1799C11.1387 14.0079 9.47984 16.9863 8.63265 18.5057C8.40268 18.9114 8.233 19.2262 8.15424 19.4136C8.06357 19.6195 7.97265 19.8132 7.8759 19.9827C7.24652 18.651 7.40988 17.2829 7.56717 15.9874C7.64593 15.3155 7.72446 14.6616 7.70646 14.0259C7.68215 13.3662 7.59732 12.8153 7.51879 12.2885C7.4398 11.7985 7.36712 11.3261 7.36127 10.7996ZM7.06446 22.9368C7.14322 22.9611 7.23413 22.9851 7.32481 23.0153C7.688 23.1184 8.26315 23.2756 8.20262 24.5227C8.15401 24.5711 7.99673 24.6195 7.76068 24.662C7.39142 24.7408 6.9011 24.7529 6.3804 24.7284C5.47244 24.6741 4.50395 24.4802 3.88626 24.196C3.25058 23.8992 2.71796 23.5421 2.39123 23.2273C3.75515 23.4813 5.82721 23.8709 7.06446 22.9368ZM8.3356 11.526C8.31737 11.6349 8.40829 11.8225 8.55949 11.98C8.74272 12.1705 8.9554 12.2867 9.18069 12.3119C9.35597 12.3315 9.53897 12.2963 9.72173 12.1979C9.93697 12.0784 10.0947 11.916 10.0975 11.7526C10.0994 11.6409 10.0291 11.5288 9.85471 11.429C9.70934 11.3502 9.50368 11.2836 9.27347 11.2474C9.0435 11.217 8.82545 11.2231 8.66209 11.2656C8.47489 11.3081 8.35406 11.3988 8.3356 11.526ZM6.43509 22.1922C6.19296 22.4224 5.37569 22.7795 2.63335 22.2104C2.10073 22.1015 1.7254 22.1258 1.48327 22.2408C1.16847 22.392 1.02918 22.6402 1.05348 22.9669C1.06564 23.1667 1.15632 23.3724 1.30776 23.5846C1.65902 24.0688 2.46391 24.6863 3.45063 25.1465C4.18307 25.4854 5.303 25.7156 6.32618 25.7761C6.92541 25.8062 7.50056 25.7819 7.96658 25.6912C8.08156 25.6669 8.19655 25.6368 8.29961 25.6066C8.38421 26.3753 8.51158 27.4527 8.65064 28.5425C8.82031 29.9106 9.00798 31.2666 9.13488 32.0051C9.35293 33.258 9.71588 34.1784 10.388 34.8743C11.0602 35.5703 11.9983 36.0123 13.3543 36.303C15.0491 36.6662 16.1632 36.2668 16.9136 35.6369C17.6522 35.0134 18.0032 34.184 18.2273 33.627C18.4512 33.0764 18.5968 31.7871 18.6753 30.1343C18.7295 28.9297 18.7539 27.5072 18.7419 26.0299C19.5048 26.72 20.3459 27.0589 21.1452 27.1984C22.2041 27.3798 23.1728 27.2043 23.7538 27.0589C24.1778 26.95 24.7045 26.7137 25.0133 26.4232C25.1949 26.2535 25.3159 26.0542 25.3524 25.8242C25.3884 25.5576 25.3098 25.2974 25.0616 25.0675C24.8256 24.8434 24.3897 24.6438 23.6636 24.4923C22.0531 24.1595 21.908 23.9779 21.448 23.3906C21.3297 23.2414 21.2065 23.096 21.0788 22.9548C21.0846 22.9305 21.0846 22.9064 21.0846 22.8821C21.2567 22.8773 21.4285 22.8631 21.599 22.8395C22.1459 22.7612 22.6747 22.5871 23.1611 22.3251C23.597 22.7853 24.7651 24.0504 26.0427 25.5879C26.4964 26.1388 26.9689 26.4779 27.4408 26.6473C28.4394 27.0045 29.3539 26.5868 30.1892 25.6667C30.9153 24.8555 31.5814 23.6386 32.1806 22.2223C33.9846 17.9485 35.1709 11.7921 35.2499 10.2847C35.8671 -2.1128 23.7662 1.88852 21.8414 2.60273C20.6971 1.82191 19.2199 1.33767 17.3072 1.36782C16.381 1.37974 15.5154 1.49472 14.7224 1.6887C14.341 1.58587 13.8023 1.43442 13.7719 1.42227C13.6992 1.40404 13.6146 1.38605 13.5055 1.36174C12.0829 1.02871 9.47984 0.653606 6.84057 1.4162C5.09734 1.91867 3.3478 2.91754 1.91306 4.7456C0.968649 5.95621 1.04741 8.94675 2.02805 12.494C2.8694 15.5455 4.37074 19.0565 6.43509 22.1922Z" fill="white"/>
</svg>
