<svg width="76" height="76" viewBox="0 0 76 76" fill="none" xmlns="http://www.w3.org/2000/svg">
<g clip-path="url(#clip0_211_20)">
<path d="M44.7398 0H16.448C13.7239 0 11.5032 2.22071 11.5032 4.95958V70.8554C11.5032 73.5943 13.7239 75.8002 16.4628 75.815H66.1326C68.8715 75.815 71.0774 73.5943 71.0922 70.8554L70.9441 21.911L44.7398 0Z" fill="#F6E5FF"/>
<path d="M44.7399 0L44.6658 21.3928C44.6658 21.3928 44.7399 21.911 45.184 21.911H70.9442L44.7399 0Z" fill="#5A189A"/>
<path d="M6.7361 36.5234H56.7168C57.8272 36.5234 58.7303 37.4265 58.7303 38.5369V60.8624C58.7303 61.9728 57.8272 62.8758 56.7168 62.8758H6.7361C5.62574 62.8758 4.72266 61.9728 4.72266 60.8624V38.5369C4.72266 37.4265 5.62574 36.5234 6.7361 36.5234Z" fill="#5A189A"/>
<path d="M9.25286 44.2808H13.0281L14.9971 47.6858L16.9069 44.2808H20.6377L17.1882 49.6549L20.9634 55.3695H17.1142L14.9231 51.8164L12.732 55.3695H8.91235L12.732 49.5957L9.25286 44.2808Z" fill="white"/>
<path d="M22.059 44.2808H25.4789V52.6454H30.8234V55.3695H22.059V44.2808Z" fill="white"/>
<path d="M31.8005 51.7128L35.0575 51.5055C35.1315 52.0385 35.2648 52.4382 35.4869 52.7195C35.8422 53.1637 36.3455 53.3857 36.9969 53.3857C37.4855 53.3857 37.8704 53.2673 38.1221 53.0452C38.3738 52.8528 38.507 52.5567 38.5218 52.2458C38.5218 51.9497 38.3738 51.6684 38.1517 51.4759C37.9 51.2539 37.3078 51.0318 36.3899 50.8245C34.8947 50.484 33.8139 50.0399 33.1773 49.4773C32.5407 48.9443 32.1854 48.1597 32.215 47.3306C32.215 46.7532 32.3927 46.1906 32.7184 45.7169C33.0885 45.1839 33.6067 44.7694 34.2136 44.5177C34.8799 44.2216 35.7829 44.0884 36.9377 44.0884C38.359 44.0884 39.4397 44.3549 40.1799 44.873C40.9202 45.406 41.3643 46.2351 41.5124 47.3898L38.2849 47.5823C38.1961 47.0789 38.0185 46.7236 37.752 46.4867C37.4707 46.2647 37.1006 46.1462 36.612 46.1462C36.2123 46.1462 35.9162 46.2351 35.7089 46.3979C35.5165 46.546 35.4128 46.768 35.4128 47.0197C35.4128 47.2122 35.5165 47.3898 35.6645 47.4935C35.8274 47.6415 36.2123 47.7748 36.8193 47.908C38.3146 48.2337 39.3953 48.5594 40.0319 48.8851C40.6093 49.1516 41.0978 49.5809 41.4532 50.1139C41.7492 50.6025 41.8973 51.1798 41.8973 51.7572C41.8973 52.453 41.69 53.1489 41.3051 53.7263C40.9054 54.3332 40.328 54.807 39.6618 55.0883C38.9512 55.3992 38.0629 55.5472 36.9969 55.5472C35.1167 55.5472 33.7991 55.1771 33.0737 54.4517C32.3186 53.7559 31.9041 52.8232 31.8005 51.7128Z" fill="white"/>
<path d="M42.83 44.2808H46.6052L48.5742 47.6858L50.484 44.2808H54.2148L50.7653 49.6549L54.5405 55.3695H50.6913L48.5002 51.8164L46.3091 55.3843H42.4747L46.2943 49.6105L42.83 44.2808Z" fill="white"/>
</g>
<defs>
<clipPath id="clip0_211_20">
<rect width="75.8002" height="75.8002" fill="white"/>
</clipPath>
</defs>
</svg>
