<svg
	width="59"
	height="59"
	viewBox="0 0 59 59"
	fill="none"
	xmlns="http://www.w3.org/2000/svg"
>
	<rect width="59" height="59" rx="10.4889" fill="#FEF1F0" />
	<g clip-path="url(#clip0_3406_12600)">
		<path
			d="M21.5096 34.4934C21.9192 34.4934 22.1923 34.2203 22.1923 33.8107V28.3492C22.1923 28.0761 22.0558 27.803 21.7827 27.6665C21.5096 27.5299 21.2366 27.6665 20.9635 27.9396L19.4615 29.9876L17.9596 27.9396C17.8231 27.6665 17.4134 27.6665 17.1404 27.6665C16.8673 27.803 16.7308 28.0761 16.7308 28.3492V33.8107C16.7308 34.2203 17.0038 34.4934 17.4135 34.4934C17.8231 34.4934 18.0962 34.2203 18.0962 33.8107V30.3973L18.9154 31.4897C19.1885 31.8993 19.7346 31.8993 20.0077 31.4897L20.8269 30.3973V33.8107C20.8269 34.2203 21.1 34.4934 21.5096 34.4934ZM31.75 33.128C30.9308 33.128 30.3846 32.7184 30.3846 32.4453C30.3846 32.0357 29.975 31.7626 29.7019 31.7626C29.2923 31.7626 29.0192 32.1723 29.0192 32.4453C29.1558 33.5376 30.2481 34.357 31.75 34.357C33.2519 34.357 34.4808 33.4012 34.4808 32.3089C34.4808 31.2166 33.6615 30.5339 32.0231 30.2609H31.8865C30.6577 30.1243 30.5212 29.7147 30.5212 29.5782C30.5212 29.3051 31.0673 28.8955 31.8865 28.8955C32.7058 28.8955 33.2519 29.3051 33.2519 29.5782C33.2519 29.9878 33.6615 30.2609 33.9346 30.1243C34.3442 30.1243 34.6173 29.7147 34.6173 29.4416C34.4808 28.3493 33.3885 27.5301 31.8865 27.5301C30.3846 27.5301 29.1558 28.4859 29.1558 29.5782C29.1558 30.6705 29.975 31.3532 31.6135 31.6262L31.75 30.9435L31.8865 31.6262C32.9788 31.7628 33.2519 32.0359 33.2519 32.3089C33.1154 32.7185 32.5692 33.128 31.75 33.128ZM46.0865 33.128H44.0385V28.3492C44.0385 27.9396 43.7654 27.6665 43.3558 27.6665C42.9462 27.6665 42.6731 27.9396 42.6731 28.3492V33.8107C42.6731 34.2203 42.9462 34.4934 43.3558 34.4934H46.0865C46.4962 34.4934 46.7692 34.2203 46.7692 33.8107C46.7692 33.4011 46.4962 33.128 46.0865 33.128ZM41.9904 35.8588C41.5808 35.8588 41.3077 36.1319 41.3077 36.5415V40.6376C41.3077 41.7299 40.3519 42.6857 39.2596 42.6857H17.4135C16.3212 42.6857 15.3654 41.7299 15.3654 40.6376V20.8396H41.3077V25.6185C41.3077 26.0281 41.5808 26.3011 41.9904 26.3011C42.4 26.3011 42.6731 26.0281 42.6731 25.6185V17.4262C42.6731 15.5146 41.1712 14.0127 39.2596 14.0127H17.4135C15.5019 14.0127 14 15.5146 14 17.4262V40.6376C14 42.5492 15.5019 44.0511 17.4135 44.0511H39.2596C41.1712 44.0511 42.6731 42.5492 42.6731 40.6376V36.5415C42.6731 36.1319 42.4 35.8588 41.9904 35.8588ZM22.875 16.7435C23.2846 16.7435 23.5577 17.0165 23.5577 17.4262C23.5577 17.8358 23.2846 18.1088 22.875 18.1088C22.4654 18.1088 22.1923 17.8358 22.1923 17.4262C22.1923 17.0165 22.4654 16.7435 22.875 16.7435ZM20.1442 16.7435C20.5538 16.7435 20.8269 17.0165 20.8269 17.4262C20.8269 17.8358 20.5538 18.1088 20.1442 18.1088C19.7346 18.1088 19.4615 17.8358 19.4615 17.4262C19.4615 17.0165 19.7346 16.7435 20.1442 16.7435ZM17.4135 16.7435C17.8231 16.7435 18.0962 17.0165 18.0962 17.4262C18.0962 17.8358 17.8231 18.1088 17.4135 18.1088C17.0038 18.1088 16.7308 17.8358 16.7308 17.4262C16.7308 17.0165 17.0038 16.7435 17.4135 16.7435ZM41.3077 29.7146C41.3077 28.6223 40.3519 27.6665 39.2596 27.6665H37.8942C36.8019 27.6665 35.8462 28.6223 35.8462 29.7146V32.4453C35.8462 33.5376 36.8019 34.4934 37.8942 34.4934H39.2596C39.5327 34.4934 39.8058 34.357 40.0788 34.2205C40.2154 34.357 40.3519 34.357 40.625 34.357C40.7615 34.357 41.0346 34.357 41.1712 34.2205C41.4442 33.9474 41.4442 33.5376 41.1712 33.2646C41.3077 32.9915 41.4442 32.7184 41.4442 32.4453V29.7146H41.3077ZM39.9423 32.1724L39.8058 32.0357C39.5327 31.7626 39.1231 31.7626 38.85 32.0357C38.5769 32.3088 38.5769 32.7185 38.85 32.9916L38.9865 33.128H37.8942C37.4846 33.128 37.2115 32.8549 37.2115 32.4453V29.7146C37.2115 29.3049 37.4846 29.0319 37.8942 29.0319H39.2596C39.6692 29.0319 39.9423 29.3049 39.9423 29.7146V32.1724ZM23.9673 37.0878C24.1038 37.0878 24.1038 37.2242 24.2404 37.2242C24.5135 37.2242 24.7865 37.0878 24.7865 36.8146L27.5173 31.353C27.6538 31.0799 27.5173 30.6703 27.2442 30.3973C26.9712 30.2607 26.5615 30.3973 26.2885 30.6703L25.4692 32.1724L24.65 30.6703C24.5134 30.3973 24.1039 30.2607 23.6942 30.3973C23.4212 30.5338 23.2846 30.9434 23.4211 31.353L24.65 33.8107L23.4211 36.2685C23.4211 36.5416 23.5577 36.9512 23.9673 37.0878Z"
			fill="#EE352C"
		/>
	</g>
	<defs>
		<clipPath id="clip0_3406_12600">
			<rect
				width="32.7692"
				height="30"
				fill="white"
				transform="translate(14 14)"
			/>
		</clipPath>
	</defs>
</svg>